<svg width="1144" height="704" viewBox="0 0 1144 704" fill="none" xmlns="http://www.w3.org/2000/svg">
<g id="wedding 1" clip-path="url(#clip0_4:134)">
<path id="Vector" d="M672.19 669.56C694.397 669.56 712.4 666.515 712.4 662.76C712.4 659.004 694.397 655.96 672.19 655.96C649.983 655.96 631.98 659.004 631.98 662.76C631.98 666.515 649.983 669.56 672.19 669.56Z" fill="#6C63FF"/>
<path id="Vector_2" d="M688.82 651.62C690.656 650.124 691.992 648.105 692.65 645.83C693.15 643.54 692.17 640.78 689.97 639.94C687.51 639 684.88 640.71 682.89 642.43C680.9 644.15 678.61 646.11 676.01 645.75C677.35 644.533 678.352 642.99 678.92 641.271C679.488 639.552 679.601 637.716 679.25 635.94C679.136 635.204 678.825 634.513 678.35 633.94C676.98 632.48 674.51 633.1 672.87 634.25C667.67 637.91 666.22 644.97 666.19 651.33C665.67 649.04 666.11 646.65 666.1 644.33C666.09 642.01 665.44 639.33 663.45 638.1C662.223 637.44 660.843 637.115 659.45 637.16C657.12 637.07 654.51 637.3 652.92 639.01C650.92 641.14 651.45 644.7 653.17 647.01C654.89 649.32 657.52 650.82 659.94 652.43C661.876 653.584 663.527 655.16 664.77 657.04C664.92 657.303 665.041 657.581 665.13 657.87H679.79C683.068 656.203 686.106 654.101 688.82 651.62V651.62Z" fill="#6C63FF"/>
<path id="Vector_3" d="M765.19 690.65C787.397 690.65 805.4 687.606 805.4 683.85C805.4 680.095 787.397 677.05 765.19 677.05C742.983 677.05 724.98 680.095 724.98 683.85C724.98 687.606 742.983 690.65 765.19 690.65Z" fill="#6C63FF"/>
<path id="Vector_4" d="M781.82 672.73C783.656 671.235 784.992 669.215 785.65 666.94C786.15 664.64 785.17 661.89 782.97 661.05C780.51 660.11 777.88 661.81 775.89 663.54C773.9 665.27 771.61 667.22 769.01 666.86C770.35 665.643 771.352 664.1 771.92 662.381C772.488 660.662 772.601 658.826 772.25 657.05C772.138 656.314 771.827 655.622 771.35 655.05C769.98 653.59 767.51 654.21 765.87 655.36C760.67 659.02 759.22 666.08 759.19 672.44C758.67 670.15 759.11 667.76 759.1 665.44C759.09 663.12 758.44 660.44 756.45 659.21C755.223 658.55 753.843 658.226 752.45 658.27C750.12 658.18 747.51 658.41 745.92 660.12C743.92 662.25 744.45 665.81 746.17 668.12C747.89 670.43 750.52 671.92 752.94 673.54C754.876 674.694 756.527 676.27 757.77 678.15C757.92 678.413 758.041 678.691 758.13 678.98H772.79C776.066 677.31 779.103 675.208 781.82 672.73Z" fill="#6C63FF"/>
<path id="Vector_5" d="M180.19 683.15C202.397 683.15 220.4 680.106 220.4 676.35C220.4 672.595 202.397 669.55 180.19 669.55C157.983 669.55 139.98 672.595 139.98 676.35C139.98 680.106 157.983 683.15 180.19 683.15Z" fill="#6C63FF"/>
<path id="Vector_6" d="M196.82 665.23C198.656 663.735 199.992 661.715 200.65 659.44C201.15 657.15 200.17 654.39 197.97 653.55C195.51 652.61 192.88 654.32 190.89 656.04C188.9 657.76 186.61 659.73 184.01 659.36C185.35 658.143 186.352 656.6 186.92 654.881C187.488 653.162 187.601 651.326 187.25 649.55C187.136 648.814 186.825 648.123 186.35 647.55C184.98 646.09 182.51 646.71 180.87 647.86C175.67 651.52 174.22 658.59 174.19 664.94C173.67 662.65 174.11 660.26 174.1 657.94C174.09 655.62 173.44 652.94 171.45 651.71C170.223 651.05 168.843 650.726 167.45 650.77C165.12 650.68 162.51 650.92 160.92 652.63C158.92 654.75 159.45 658.31 161.17 660.63C162.89 662.95 165.52 664.44 167.94 666.05C169.876 667.204 171.527 668.78 172.77 670.66C172.92 670.923 173.041 671.201 173.13 671.49H187.79C191.069 669.82 194.106 667.715 196.82 665.23V665.23Z" fill="#6C63FF"/>
<path id="Vector_7" d="M561.93 661C561.935 660.91 561.935 660.82 561.93 660.73C561.993 659.454 561.749 658.182 561.22 657.02C559.6 653.74 555.7 653.2 552.39 652.63C546.939 651.695 541.716 649.73 537 646.84C533.87 644.93 530.66 642.12 530.27 638.17C530.27 637.36 530.33 636.55 530.27 635.81C530.27 635.27 530.27 634.74 530.27 634.23C530.27 632.12 530.15 630.18 528.58 629.8C519.2 627.48 511.09 619.49 507.86 609.36C507.17 607.2 506.69 604.95 505.8 602.88C502.97 596.32 496.67 592.76 491.91 587.8C485.65 581.27 482.02 572.19 479.39 563.08C476.76 553.97 474.94 544.54 471.49 535.77C465.74 521.14 460.55 505.56 450.8 493.87C449.33 492.1 447.71 490.29 446 488.46C437.33 475.8 431.44 460.83 423.93 447.17C422.497 444.37 420.749 441.743 418.72 439.34C416.12 436.46 412.9 434.4 409.9 432.05C395.45 420.77 386.21 403.05 373.76 389.12C371.59 386.69 368.21 383.27 366.61 380.34C366.601 378.63 366.748 376.923 367.05 375.24C367.85 371.09 370 367.15 369.63 362.92C369.5 362.096 369.43 361.264 369.42 360.43C369.522 359.469 369.779 358.53 370.18 357.65C370.824 355.743 371.676 353.912 372.72 352.19C374.532 349.406 375.725 346.265 376.22 342.98C378.71 340.62 379.79 336.3 382.9 335.21C384.63 334.61 386.9 335.02 387.9 333.31C388.189 332.724 388.349 332.083 388.37 331.43C388.685 328.053 388.397 324.647 387.52 321.37C387.771 319.639 387.838 317.886 387.72 316.14C387.379 311.788 386.136 307.555 384.07 303.71C382.8 301.29 381.07 298.87 378.6 298.31C378.06 298.19 377.51 298.16 376.99 298C373.81 297.07 372.71 292.16 369.84 290.64C373.53 292.64 377.3 294.9 380.77 293.22C385.13 291.09 385.49 284.45 385.16 279.15L384 259.52C383.38 249.52 382.6 238.91 377.45 230.67C372.81 223.23 365.21 218.76 357.45 215.97C352.21 214.08 346.45 212.87 341.26 214.8C341.57 214.58 341.87 214.36 342.17 214.16C341.531 214.35 340.907 214.584 340.3 214.86C337.578 216.243 335.05 217.978 332.78 220.02C334.038 216.836 334.683 213.443 334.68 210.02C334.709 204.898 333.257 199.877 330.5 195.56L336.36 190.63L334.99 188.4L337.57 185.94C337.408 185.677 337.181 185.46 336.912 185.31C336.642 185.159 336.339 185.08 336.03 185.08C335.91 185.07 335.79 185.07 335.67 185.08C335.762 184.345 335.701 183.6 335.49 182.89L335.31 183.06C335.154 182.449 334.912 181.863 334.59 181.32H334.8C334.676 181.095 334.54 180.878 334.39 180.67C334.39 180.77 334.39 180.88 334.39 180.98C333.546 179.738 332.514 178.634 331.33 177.71C326.85 174.03 321.72 170.98 316.17 170.57C313.47 170.37 310.76 170.8 308.06 170.57C304.42 170.32 300.89 168.94 297.24 168.79C293.59 168.64 289.48 170.13 287.97 173.79C287.32 175.39 287.23 177.19 286.74 178.84C285.65 182.52 282.74 185.07 280.27 187.79C277.8 190.51 275.51 194.16 276.19 197.96C276.461 199.169 276.884 200.338 277.45 201.44L290.12 228.8C290.172 230.802 290.112 232.805 289.94 234.8C289.86 235.66 289.75 236.53 289.61 237.41C289.55 237.78 289.48 238.16 289.39 238.54C287.894 238.792 286.539 239.573 285.57 240.74C285.208 241.195 284.979 241.742 284.91 242.32C284.982 243.237 285.143 244.144 285.39 245.03C285.41 246.21 285.131 247.376 284.58 248.42C283.31 251.37 281.96 254.37 279.8 256.58C278.92 257.49 277.92 258.25 277.03 259.15C276.015 260.23 275.088 261.391 274.26 262.62C272.41 265.22 270.5 267.94 269.82 271.18C268.7 276.48 266.44 281.52 264.82 286.69C264.589 287.107 264.303 287.49 263.97 287.83C262.97 288.77 261.69 289.17 260.71 290.09C258.51 292.17 258.71 295.97 259.25 299.14C261.19 310.92 264.59 322.39 265.94 334.27C266.48 338.93 266.7 343.67 267.74 348.22C268.124 350.186 268.851 352.068 269.89 353.78C269.74 358.25 270.2 362.78 268.61 366.9C267.87 368.76 266.84 370.46 265.94 372.24C264.694 374.805 263.589 377.435 262.63 380.12L257.2 394.42C256.2 397.13 255.14 399.86 254.36 402.68C252.11 410.89 252.1 419.68 252.42 428.23C252.461 428.494 252.404 428.765 252.26 428.99C252.1 429.19 251.72 429.13 251.71 428.86C251.64 429.36 251.36 430.21 251.3 430.7C253.72 431.88 256.44 431.5 259.14 431.21C259.14 431.47 259.14 431.74 259.14 432C259.135 432.063 259.135 432.127 259.14 432.19C259.164 433.005 259.248 433.817 259.39 434.62C259.39 434.62 259.39 434.62 259.39 434.68C259.46 435.09 259.55 435.49 259.64 435.89C259.64 436 259.64 436.1 259.72 436.21C259.81 436.57 259.91 436.94 260.02 437.29C260.08 437.48 260.13 437.65 260.19 437.83C260.25 438.01 260.34 438.27 260.42 438.48C260.5 438.69 260.51 438.75 260.56 438.88C261.22 440.6 262.01 442.26 262.76 443.94C264.048 446.539 264.909 449.328 265.31 452.2C265.37 452.86 265.39 453.52 265.42 454.2V454.89C265.44 455.603 265.5 456.314 265.6 457.02C265.78 458.16 266.12 459.25 266.39 460.37C266.55 461.03 266.67 461.71 266.79 462.37C266.91 463.03 267.02 463.9 267.12 464.66C267.873 470.313 268.43 475.98 268.79 481.66C268.88 483.03 268.96 484.41 269.03 485.78C269.5 495.78 269.38 505.78 269.26 515.84C269.194 519.122 268.859 522.393 268.26 525.62C266.59 535.09 263.14 544.29 260.86 553.69C260.62 554.69 260.4 555.69 260.19 556.69C259.683 558.809 259.348 560.967 259.19 563.14C259.175 566.038 259.436 568.931 259.97 571.78C260.463 575.24 260.843 578.717 261.11 582.21C259.266 585.464 258.065 589.043 257.57 592.75C256.36 603.88 246.93 612.23 245.65 623.36C245.565 624.067 245.535 624.779 245.56 625.49C245.53 625.95 245.53 626.411 245.56 626.87C245.426 628.052 245.528 629.248 245.86 630.39C246.334 631.587 247.129 632.63 248.158 633.405C249.186 634.179 250.408 634.655 251.69 634.78C254.14 635.09 256.59 634.47 259.03 634.06C260.13 633.87 261.23 633.75 262.33 633.64C262.36 634.019 262.36 634.401 262.33 634.78C261.812 635.709 261.371 636.679 261.01 637.68C260.393 638.852 260.01 640.132 259.88 641.45C259.837 643.006 260.228 644.544 261.01 645.89C263.47 650.38 268.38 652.49 273.08 652.89C277.78 653.29 282.45 652.26 287.15 652.01H287.95C288.112 652.452 288.309 652.88 288.54 653.29C290.99 657.78 295.91 659.89 300.6 660.29C305.29 660.69 309.98 659.67 314.68 659.42C316.08 659.35 317.49 659.35 318.89 659.25C321.763 659.033 324.606 658.513 327.37 657.7C329.36 660.529 331.642 663.14 334.18 665.49C342.42 672.49 353.81 672.09 364.11 670.72C374.41 669.35 386.02 666.81 395.41 671.72C402.61 670.93 406.9 682.36 414.13 682.65C417.45 682.78 420.43 680.45 422.83 677.89C423.654 676.816 424.715 675.947 425.93 675.35C426.934 675.052 427.998 675.017 429.02 675.25C434.622 676.264 439.655 679.303 443.16 683.79C444.98 686.07 446.84 688.94 449.57 689C452.02 689 454.19 686.69 456.62 687C458.27 687.22 459.62 688.63 461.05 689.5C465.53 692.15 471.05 689.7 475.35 686.78C479.65 683.86 484.25 680.33 489.29 680.86C492.56 681.2 495.47 683.24 498.52 684.57C507.92 688.67 519.45 685.57 526.19 677.21C527.26 675.87 528.36 674.32 529.94 673.97C530.996 673.84 532.067 673.999 533.04 674.43C538.69 676.31 544.63 678.04 550.41 676.76C556.19 675.48 561.69 670.25 561.81 663.67C561.818 663.269 561.802 662.869 561.76 662.47C561.76 662.22 561.81 661.96 561.81 661.7C561.865 661.47 561.905 661.236 561.93 661ZM334.93 285.28C334.529 286.333 333.835 287.249 332.93 287.92C332.85 287.49 332.77 287.06 332.68 286.62C332.32 284.76 331.91 282.91 331.47 281.07C332.804 281.926 334.229 282.631 335.72 283.17C335.43 283.87 335.19 284.62 334.9 285.28H334.93ZM320.27 240.14C320.27 240.21 320.27 240.28 320.27 240.35C320.27 243.87 321.49 245.88 323.27 247.03C321.284 250.882 320.255 255.156 320.27 259.49C319.59 258.96 318.86 258.49 318.27 257.9C317.175 256.773 316.285 255.463 315.64 254.03C315.927 254.079 316.222 254.033 316.48 253.9C316.99 253.55 316.97 252.73 316.9 252.07C316.224 245.791 317.071 239.442 319.37 233.56C320.539 233.148 321.667 232.629 322.74 232.01C321.253 234.424 320.41 237.178 320.29 240.01C320.29 240.01 320.24 240.09 320.24 240.14H320.27ZM369.21 290.33C368.692 292.269 368.406 294.263 368.36 296.27C366.548 293.491 363.875 291.384 360.75 290.27C360.382 290.16 360.008 290.07 359.63 290C359.863 289.768 360.114 289.554 360.38 289.36C363.25 287.36 366.48 288.76 369.78 290.51C369.584 290.437 369.384 290.377 369.18 290.33H369.21Z" fill="url(#paint0_linear_4:134)"/>
<path id="Vector_8" d="M250.4 653.21C250.359 654.813 250.81 656.39 251.69 657.73C254.48 662.3 260.08 664.44 265.41 664.84C270.74 665.24 276.08 664.2 281.41 663.95C283.01 663.88 284.61 663.87 286.2 663.78C294.48 663.28 302.39 660.35 310.2 657.45C311.48 656.98 312.97 656.22 313.04 654.87C313.008 654.404 312.872 653.95 312.644 653.542C312.416 653.134 312.1 652.782 311.72 652.51C310.699 651.617 309.549 650.882 308.31 650.33C303.97 648.42 298.77 648.92 294.65 646.57C293.74 646.05 292.91 645.41 291.96 644.98C290.849 644.533 289.675 644.263 288.48 644.18C283.323 643.594 278.107 643.766 273 644.69C269.11 645.4 265.28 646.55 261.33 646.83C259.834 646.959 258.327 646.861 256.86 646.54C255.86 646.31 254.59 645.41 253.64 646.01C252.69 646.61 252.16 648.52 251.71 649.37C251.009 650.544 250.563 651.852 250.4 653.21V653.21Z" fill="#3F3D56"/>
<path id="Vector_9" opacity="0.05" d="M250.4 653.21C250.359 654.813 250.81 656.39 251.69 657.73C254.48 662.3 260.08 664.44 265.41 664.84C270.74 665.24 276.08 664.2 281.41 663.95C283.01 663.88 284.61 663.87 286.2 663.78C294.48 663.28 302.39 660.35 310.2 657.45C311.48 656.98 312.97 656.22 313.04 654.87C313.008 654.404 312.872 653.95 312.644 653.542C312.416 653.134 312.1 652.782 311.72 652.51C310.699 651.617 309.549 650.882 308.31 650.33C303.97 648.42 298.77 648.92 294.65 646.57C293.74 646.05 292.91 645.41 291.96 644.98C290.849 644.533 289.675 644.263 288.48 644.18C283.323 643.594 278.107 643.766 273 644.69C269.11 645.4 265.28 646.55 261.33 646.83C259.834 646.959 258.327 646.861 256.86 646.54C255.86 646.31 254.59 645.41 253.64 646.01C252.69 646.61 252.16 648.52 251.71 649.37C251.009 650.544 250.563 651.852 250.4 653.21V653.21Z" fill="black"/>
<path id="Vector_10" d="M281.72 660.71C281.675 662.314 282.125 663.892 283.01 665.23C285.8 669.8 291.39 671.94 296.73 672.34C302.07 672.74 307.4 671.7 312.73 671.45C314.33 671.38 315.92 671.37 317.52 671.28C325.8 670.78 333.71 667.85 341.52 664.95C342.8 664.47 344.29 663.72 344.36 662.36C344.328 661.895 344.192 661.443 343.964 661.037C343.736 660.63 343.42 660.28 343.04 660.01C342.021 659.114 340.871 658.378 339.63 657.83C335.29 655.92 330.09 656.41 325.97 654.06C325.06 653.55 324.23 652.9 323.28 652.48C322.168 652.034 320.994 651.761 319.8 651.67C314.642 651.087 309.427 651.263 304.32 652.19C300.43 652.9 296.6 654.05 292.65 654.32C291.154 654.458 289.647 654.363 288.18 654.04C287.18 653.81 285.91 652.91 284.96 653.51C284.01 654.11 283.47 656.02 283.03 656.87C282.325 658.042 281.878 659.351 281.72 660.71V660.71Z" fill="#3F3D56"/>
<path id="Vector_11" d="M265.36 286.37C264.997 285.362 264.334 284.49 263.46 283.87C261.37 282.71 258.9 284.87 257.99 287.04C257.08 289.21 256.78 291.87 254.99 293.44C253.9 294.44 252.4 294.8 251.28 295.74C248.78 297.85 249.03 301.74 249.62 304.94C251.83 316.94 255.7 328.6 257.24 340.69C257.85 345.44 258.1 350.26 259.24 354.89C259.94 357.63 261.05 360.41 263.24 362.19C265.43 363.97 268.93 364.4 270.99 362.46C267.265 352.363 265.404 341.672 265.5 330.91C265.56 323.91 266.5 316.91 266.69 309.83C266.9 303.65 266.59 297.46 266.28 291.28C266.309 289.693 266.009 288.116 265.4 286.65C265.077 285.926 264.547 285.314 263.875 284.892C263.204 284.47 262.423 284.257 261.63 284.28" fill="#FBBEBE"/>
<path id="Vector_12" d="M310.26 239.3C324.161 239.3 335.43 228.031 335.43 214.13C335.43 200.229 324.161 188.96 310.26 188.96C296.359 188.96 285.09 200.229 285.09 214.13C285.09 228.031 296.359 239.3 310.26 239.3Z" fill="#CB8C8E"/>
<path id="Vector_13" d="M344.18 289.8C358.125 289.8 369.43 278.495 369.43 264.55C369.43 250.605 358.125 239.3 344.18 239.3C330.235 239.3 318.93 250.605 318.93 264.55C318.93 278.495 330.235 289.8 344.18 289.8Z" fill="#FBBEBE"/>
<path id="Vector_14" d="M354.57 289C354.79 291 355.57 293.33 357.48 293.84C358.366 293.946 359.258 293.996 360.15 293.99C360.861 294.122 361.53 294.421 362.102 294.862C362.674 295.304 363.133 295.876 363.44 296.53C364.043 297.853 364.282 299.314 364.13 300.76C363.965 302.959 363.258 305.082 362.07 306.94C359.819 310.163 356.562 312.548 352.81 313.72C349.085 314.868 345.239 315.576 341.35 315.83C339.626 316.108 337.864 316.054 336.16 315.67C335.088 315.32 334.076 314.807 333.16 314.15C330.313 312.241 327.82 309.852 325.79 307.09C324.299 305.168 323.219 302.958 322.62 300.6C322.045 298.232 322.377 295.736 323.55 293.6C323.91 292.893 324.504 292.331 325.23 292.01C327.37 291.24 329.31 293.89 331.58 293.95C333.38 293.95 334.8 292.41 335.58 290.79C336.36 289.17 336.77 287.34 337.93 285.97C339.28 284.36 341.4 283.65 343.43 283.11C346.77 282.23 351.15 280.9 354.63 281.27C356.54 281.46 355.29 282.6 354.85 283.98C354.408 285.616 354.313 287.325 354.57 289V289Z" fill="#FBBEBE"/>
<path id="Vector_15" d="M330.77 315.35C333.84 313.97 335.54 310.64 338.28 308.67C340.58 307.02 343.45 306.43 346.08 305.38C348.749 304.315 351.192 302.754 353.28 300.78C355.18 298.99 356.87 296.78 359.28 295.9C361.121 295.315 363.099 295.315 364.94 295.9C370.13 297.34 374.12 301.66 376.44 306.51C378.76 311.36 379.65 316.76 380.52 322.07L381.82 330.07C382.785 334.957 383.251 339.929 383.21 344.91C383 349.91 381.7 354.91 378.67 358.91C377.497 360.643 376.528 362.505 375.78 364.46C375.332 365.349 375.044 366.311 374.93 367.3C374.938 368.148 375.014 368.994 375.16 369.83C375.58 374.13 373.16 378.14 372.22 382.36C371.733 385.189 371.585 388.066 371.78 390.93C371.756 391.303 371.832 391.676 372 392.01C372.215 392.311 372.509 392.546 372.85 392.69C373.51 393.04 374.19 393.37 374.85 393.69C369.332 394.916 363.693 395.513 358.04 395.47C348.13 395.24 338.46 392.47 328.61 391.32C328.24 386.8 329.48 382.44 329.76 377.92C329.817 374.97 329.633 372.02 329.21 369.1C328.386 361.117 328.463 353.066 329.44 345.1C329.78 342.3 330.24 339.51 330.37 336.69C330.52 333.35 330.22 330 330.46 326.69C330.69 323.52 331.46 320.38 331.54 317.2C331.634 316.85 331.61 316.478 331.47 316.144C331.331 315.809 331.085 315.53 330.77 315.35V315.35Z" fill="#F4F6FB"/>
<path id="Vector_16" d="M341.93 386.41C352.29 386.47 361.42 386.77 371.75 387.48C373.57 390.48 369.21 398.57 371.68 401.05C385.84 415.24 388.99 434.31 405.43 445.8C408.84 448.18 418.43 450.11 421.43 453.05C423.78 455.38 420.19 453.72 421.93 456.55C431.93 472.87 454.48 488.98 467.55 503.01C478.63 514.9 484.55 530.76 491.09 545.65C495.01 554.56 497.09 564.17 500.09 573.44C503.09 582.71 507.22 591.94 514.34 598.58C519.76 603.64 526.93 607.26 530.14 613.93C531.044 616.085 531.828 618.289 532.49 620.53C534.381 625.683 537.528 630.283 541.645 633.913C545.763 637.543 550.721 640.089 556.07 641.32C558.98 641.96 557.65 646.81 557.95 649.78C558.36 653.84 562.03 656.72 565.61 658.67C571.056 661.628 576.974 663.621 583.1 664.56C586.86 665.13 591.3 665.69 593.1 669.02C593.697 670.187 593.976 671.491 593.91 672.8C593.78 679.5 587.51 684.8 580.91 686.12C574.31 687.44 567.57 685.66 561.15 683.75C560.029 683.309 558.817 683.148 557.62 683.28C555.82 683.63 554.62 685.21 553.35 686.58C549.43 690.797 544.35 693.758 538.749 695.091C533.149 696.424 527.279 696.069 521.88 694.07C518.4 692.71 515.1 690.64 511.38 690.29C505.64 689.75 500.45 693.35 495.51 696.29C490.57 699.23 484.33 701.75 479.24 699.05C477.56 698.17 476.08 696.74 474.24 696.51C471.47 696.19 469 698.59 466.24 698.51C463.14 698.45 461.01 695.51 458.94 693.21C454.73 688.569 449.039 685.533 442.84 684.62C441.678 684.377 440.476 684.412 439.33 684.72C437.975 685.306 436.769 686.187 435.8 687.3C433.07 689.91 429.68 692.3 425.91 692.14C417.68 691.85 412.79 680.22 404.6 681.02C393.92 676.02 380.7 678.6 368.99 680.02C357.28 681.44 344.31 681.85 334.93 674.7C329.99 670.92 326.64 665.43 322.03 661.24C314.75 654.62 304.93 651.73 295.46 649.03C280.46 644.75 264.88 640.43 249.46 642.76C246.68 643.18 243.89 643.76 241.1 643.49C238.31 643.22 235.45 641.65 234.47 639.03C234.042 637.686 233.946 636.259 234.19 634.87C235.64 623.55 246.37 615.05 247.74 603.72C248.43 598.1 251.45 593.18 254.67 588.53C257.41 584.372 259.911 580.062 262.16 575.62C267.49 565.62 272.84 555.62 276.86 545.06C281.09 533.95 283.8 522.33 286.5 510.75C289.1 499.58 290.34 488.14 292.21 476.82C293.57 468.59 295.7 460.51 297.83 452.44C304.13 428.6 310.47 404.62 320.83 382.26C327.57 384.16 335 386.37 341.93 386.41Z" fill="#E3E8F4"/>
<path id="Vector_17" d="M341.93 389.41C352.29 389.47 361.42 388.77 371.75 389.48C373.57 392.48 377.42 395.94 379.89 398.41C394.05 412.62 404.57 430.62 421 442.1C424.41 444.49 428.07 446.59 431 449.52C433.29 451.94 435.281 454.626 436.93 457.52C446.93 473.85 454.44 492.02 467.51 506.05C478.59 517.94 484.51 533.8 491.05 548.69C494.97 557.6 497.05 567.21 500.05 576.48C503.05 585.75 507.18 594.98 514.3 601.62C519.72 606.68 526.89 610.3 530.1 616.97C531.003 619.125 531.788 621.329 532.45 623.57C534.341 628.723 537.488 633.323 541.605 636.953C545.723 640.583 550.681 643.129 556.03 644.36C558.94 645 557.61 649.85 557.91 652.82C558.32 656.88 561.99 659.76 565.57 661.71C571.016 664.669 576.934 666.661 583.06 667.6C586.82 668.17 591.26 668.73 593.06 672.06C593.657 673.227 593.936 674.531 593.87 675.84C593.74 682.54 587.47 687.84 580.87 689.16C574.27 690.48 567.53 688.7 561.11 686.79C559.989 686.349 558.777 686.188 557.58 686.32C555.78 686.67 554.58 688.25 553.31 689.62C549.39 693.837 544.31 696.798 538.709 698.131C533.109 699.464 527.239 699.109 521.84 697.11C518.36 695.75 515.06 693.68 511.34 693.33C505.6 692.79 500.41 696.39 495.47 699.33C490.53 702.27 484.29 704.79 479.2 702.09C477.52 701.21 476.04 699.78 474.2 699.55C471.43 699.23 468.96 701.63 466.2 701.55C463.1 701.49 460.97 698.55 458.9 696.25C454.706 691.602 449.03 688.552 442.84 687.62C441.678 687.377 440.476 687.412 439.33 687.72C437.975 688.306 436.769 689.187 435.8 690.3C433.07 692.91 429.68 695.3 425.91 695.14C417.68 694.85 412.79 683.22 404.6 684.02C393.92 679.02 380.7 681.6 368.99 683.02C357.28 684.44 344.31 684.85 334.93 677.7C329.99 673.92 326.64 668.43 322.03 664.24C314.75 657.62 304.93 654.73 295.46 652.03C280.46 647.75 264.88 643.43 249.46 645.76C246.68 646.18 243.89 646.76 241.1 646.49C238.31 646.22 235.45 644.65 234.47 642.03C234.042 640.686 233.946 639.259 234.19 637.87C235.64 626.55 246.37 618.05 247.74 606.72C248.43 601.1 251.45 596.18 254.67 591.53C257.41 587.372 259.911 583.062 262.16 578.62C267.49 568.62 272.84 558.62 276.86 548.06C281.09 536.95 283.8 525.33 286.5 513.75C289.1 502.58 290.34 491.14 292.21 479.82C293.57 471.59 295.7 463.51 297.83 455.44C304.13 431.6 310.47 407.62 320.83 385.26C327.57 387.16 335 389.37 341.93 389.41Z" fill="#E3E8F4"/>
<path id="Vector_18" d="M341.93 387.41C352.29 387.47 361.42 386.77 371.75 387.48C373.57 390.48 377.42 393.94 379.89 396.41C394.05 410.62 404.57 428.62 421 440.1C424.41 442.49 428.07 444.59 431 447.52C433.29 449.94 435.281 452.626 436.93 455.52C446.93 471.85 454.44 490.02 467.51 504.05C478.59 515.94 484.51 531.8 491.05 546.69C494.97 555.6 497.05 565.21 500.05 574.48C503.05 583.75 507.18 592.98 514.3 599.62C519.72 604.68 526.89 608.3 530.1 614.97C531.003 617.125 531.788 619.329 532.45 621.57C534.341 626.723 537.488 631.323 541.605 634.953C545.723 638.583 550.681 641.129 556.03 642.36C558.94 643 557.61 647.85 557.91 650.82C558.32 654.88 561.99 657.76 565.57 659.71C571.016 662.669 576.934 664.661 583.06 665.6C586.82 666.17 591.26 666.73 593.06 670.06C593.657 671.227 593.936 672.531 593.87 673.84C593.74 680.54 587.47 685.84 580.87 687.16C574.27 688.48 567.53 686.7 561.11 684.79C559.989 684.349 558.777 684.188 557.58 684.32C555.78 684.67 554.58 686.25 553.31 687.62C549.39 691.837 544.31 694.798 538.709 696.131C533.109 697.464 527.239 697.109 521.84 695.11C518.36 693.75 515.06 691.68 511.34 691.33C505.6 690.79 500.41 694.39 495.47 697.33C490.53 700.27 484.29 702.79 479.2 700.09C477.52 699.21 476.04 697.78 474.2 697.55C471.43 697.23 468.96 699.63 466.2 699.55C463.1 699.49 460.97 696.55 458.9 694.25C454.706 689.602 449.03 686.552 442.84 685.62C441.678 685.377 440.476 685.412 439.33 685.72C437.975 686.306 436.769 687.187 435.8 688.3C433.07 690.91 429.68 693.3 425.91 693.14C417.68 692.85 412.79 681.22 404.6 682.02C393.92 677.02 380.7 679.6 368.99 681.02C357.28 682.44 344.31 682.85 334.93 675.7C329.99 671.92 326.64 666.43 322.03 662.24C314.75 655.62 304.93 652.73 295.46 650.03C280.46 645.75 264.88 641.43 249.46 643.76C246.68 644.18 243.89 644.76 241.1 644.49C238.31 644.22 235.45 642.65 234.47 640.03C234.042 638.686 233.946 637.259 234.19 635.87C235.64 624.55 246.37 616.05 247.74 604.72C248.43 599.1 251.45 594.18 254.67 589.53C257.41 585.372 259.911 581.062 262.16 576.62C267.49 566.62 272.84 556.62 276.86 546.06C281.09 534.95 283.8 523.33 286.5 511.75C289.1 500.58 290.34 489.14 292.21 477.82C293.57 469.59 295.7 461.51 297.83 453.44C304.13 429.6 310.47 405.62 320.83 383.26C327.57 385.16 335 387.37 341.93 387.41Z" fill="#F4F6FB"/>
<path id="Vector_19" d="M251.74 433.3C248.44 436.91 249.19 442.65 251.12 447.14C253.05 451.63 255.98 455.84 256.52 460.7C256.7 462.32 256.6 463.96 256.88 465.57C257.09 466.73 257.48 467.84 257.78 468.98C258.144 470.423 258.425 471.885 258.62 473.36C259.68 480.48 260.4 487.66 260.78 494.86C261.33 505.04 261.19 515.25 261.05 525.45C260.85 539.72 254.05 553.08 250.74 566.96C250.158 569.107 249.776 571.303 249.6 573.52C249.585 576.472 249.877 579.418 250.47 582.31C253.392 600.514 252.798 619.11 248.72 637.09C251.72 639.45 253.81 643.41 253.09 647.15C259.54 648.28 266.29 649.39 272.5 647.34C276.25 646.11 279.62 643.77 283.5 643.04C286.5 642.49 289.97 642.77 292.09 640.59C292.952 639.572 293.58 638.377 293.93 637.09C301.25 615.79 299.2 592.6 298.79 570.09C298.57 557.99 298.79 545.88 298.33 533.79C297.427 512.234 294.044 490.853 288.25 470.07C285.45 460.07 282.75 450.07 277.25 441.2C276.143 439.149 274.575 437.383 272.67 436.04C270.58 434.76 268.05 434.45 265.61 434.17C260.51 433.62 256.84 433.88 251.74 433.3Z" fill="#3F3D56"/>
<path id="Vector_20" opacity="0.05" d="M293.93 637.1C293.577 638.383 292.95 639.574 292.09 640.59C289.97 642.78 286.49 642.49 283.5 643.05C283.12 643.12 282.74 643.21 282.37 643.31C278.96 644.22 275.88 646.23 272.51 647.31C266.29 649.31 259.51 648.25 253.09 647.12C253.81 643.38 251.72 639.41 248.72 637.05C252.801 619.074 253.399 600.481 250.48 582.28C249.878 579.389 249.584 576.443 249.6 573.49C249.78 571.273 250.162 569.078 250.74 566.93C254.03 553.04 260.85 539.68 261.05 525.41C261.19 515.21 261.33 505 260.79 494.82C260.397 487.62 259.673 480.453 258.62 473.32C258.423 471.846 258.146 470.384 257.79 468.94C257.48 467.81 257.09 466.69 256.89 465.53C256.6 463.93 256.7 462.28 256.52 460.66C255.98 455.8 253.06 451.6 251.12 447.11C250.31 445.26 249.784 443.298 249.56 441.29C249.33 439.878 249.406 438.434 249.782 437.053C250.158 435.673 250.826 434.39 251.74 433.29C255.17 433.67 257.94 433.66 260.94 433.79C262.41 433.85 263.94 433.95 265.61 434.14C268.05 434.41 270.61 434.72 272.68 436.01C274.583 437.352 276.148 439.119 277.25 441.17C277.79 442.04 278.3 442.92 278.79 443.81C283.28 451.98 285.73 460.98 288.25 470.03C294.044 490.813 297.426 512.194 298.33 533.75C298.84 545.84 298.57 557.95 298.79 570.06C299.21 592.62 301.25 615.79 293.93 637.1Z" fill="black"/>
<path id="Vector_21" d="M330.8 441.14C330.8 442.89 330.8 444.65 330.8 446.4C330.753 463.293 330.71 480.183 330.67 497.07C330.67 504.02 330.67 510.99 329.95 517.9C328.18 535.9 321.6 553.33 322.3 571.35C322.8 584.44 323.3 597.68 320.67 610.52C319.67 615.44 318.21 620.28 317.49 625.25C316.77 630.22 316.85 635.46 318.82 640.09C320.24 643.4 322.63 646.53 322.5 650.09C322.353 651.62 321.848 653.094 321.026 654.394C320.205 655.693 319.089 656.781 317.77 657.57C315.111 659.116 312.164 660.099 309.11 660.46C305.3 661.091 301.442 661.389 297.58 661.35C292.05 661.29 285.75 660.08 282.89 655.35C280.97 652.17 281.12 648.13 282.04 644.52C282.15 644.1 282.26 643.69 282.38 643.28C283.32 640.13 284.66 637.1 285.38 633.9C286.536 628.849 286.164 623.569 284.31 618.73C283.97 617.83 282.9 616.13 281.94 616.24C280.41 612.29 280.18 607.97 279.94 603.73L278.53 575.03C278.23 568.78 277.93 562.45 279.21 556.33C280.21 551.33 282.34 546.57 282.94 541.5C283.208 538.455 283.192 535.392 282.89 532.35C281.769 516.669 279.739 501.066 276.81 485.62C276.713 484.834 276.451 484.077 276.04 483.4C275.38 482.48 274.23 482.05 273.42 481.25C271.72 479.59 271.88 476.88 271.48 474.53C270.76 470.29 267.95 466.77 265.78 463.07C262.326 457.107 260.393 450.386 260.15 443.5C260.027 440.244 260.292 436.984 260.94 433.79C261.02 433.36 261.12 432.93 261.22 432.5C283.015 431.108 304.899 432.452 326.36 436.5C327.93 436.79 329.69 437.24 330.42 438.66C330.739 439.446 330.869 440.295 330.8 441.14V441.14Z" fill="#3F3D56"/>
<path id="Vector_22" d="M453.58 519.85C464.34 538.79 475.14 557.77 483.7 577.8C490.65 594.05 496.35 611.36 508.01 624.64C518.93 637.07 534.01 644.83 548.82 652.3L535.56 640.62C522.25 628.87 508.66 616.79 500.21 601.18C495.61 592.68 492.69 583.39 489.21 574.34C480.341 551.064 467.99 529.269 452.58 509.7C448.296 504.077 443.688 498.708 438.78 493.62C442.17 502.62 448.8 511.45 453.58 519.85Z" fill="#E3E8F4"/>
<path id="Vector_23" d="M398.69 649.62C401.93 656.28 405.23 663.04 410.17 668.56C410.59 665.26 408.33 662.3 406.54 659.5C403.3 654.41 401.33 648.68 399.36 643.01C397.54 637.76 395.85 630.52 391.98 626.37C390 633.49 395.69 643.5 398.69 649.62Z" fill="#E3E8F4"/>
<path id="Vector_24" d="M361.18 524.88C362.12 529.88 362.67 534.88 363.93 539.77C365.168 544.163 366.688 548.472 368.48 552.67L389.56 605.21C389.38 598.07 385.56 591.61 383.13 584.91C380.13 576.68 379.05 567.91 376.6 559.45C374.6 552.59 371.7 546.04 369.6 539.21C366.68 529.58 365.45 519.52 363.16 509.72C361.092 501.238 358.51 492.889 355.43 484.72C354.03 480.86 352.43 476.85 349.34 474.18C346.25 471.51 341.07 470.75 338.15 473.64C334.04 477.71 340.27 480.26 342.32 482.91C351.799 495.243 358.252 509.629 361.16 524.91L361.18 524.88Z" fill="#E3E8F4"/>
<path id="Vector_25" d="M389.47 416.34C390.589 417.468 391.563 418.731 392.37 420.1C393.5 422.18 393.95 424.61 395.37 426.54C392.869 423.03 390.014 419.786 386.85 416.86C384.93 415.21 382.85 413.79 380.92 412.14C379.45 410.88 373.01 405.42 374.29 403.56C379.93 406.43 385.18 411.71 389.47 416.34Z" fill="#E3E8F4"/>
<path id="Vector_26" d="M322.55 228.46C322.32 230.53 321.05 232.32 319.96 234.1C316.781 239.381 315.008 245.389 314.81 251.55C314.75 253.357 314.83 255.166 315.05 256.96C315.13 257.63 315.15 258.47 314.57 258.82C314.258 258.965 313.909 259.01 313.57 258.95C312.89 258.89 312.23 258.81 311.57 258.7C300.88 256.99 291.52 249.7 280.76 247.86C281.424 247.546 282.013 247.094 282.487 246.533C282.962 245.972 283.31 245.317 283.51 244.61C283.799 243.804 284.016 242.974 284.16 242.13C284.32 241.24 284.44 240.35 284.53 239.48C285.21 233.04 284.23 227.12 283.87 220.58C283.46 212.96 292.87 215.47 298.39 215.37C302.82 215.29 307.33 215.22 311.61 216.42C315.89 217.62 319.96 220.27 321.8 224.31C322.417 225.601 322.676 227.034 322.55 228.46Z" fill="#CB8C8E"/>
<path id="Vector_27" d="M314.57 258.82C314.258 258.965 313.909 259.01 313.57 258.95C312.89 258.89 312.23 258.81 311.57 258.7C310.65 257.84 309.76 256.94 308.91 256C306.91 253.78 305.11 251.34 302.79 249.45C299.207 246.666 294.826 245.103 290.29 244.99C288.023 245.05 285.756 244.923 283.51 244.61C283.799 243.804 284.016 242.974 284.16 242.13C284.32 241.24 284.44 240.35 284.53 239.48C285.784 239.319 287.046 239.229 288.31 239.21C289.794 238.995 291.299 238.965 292.79 239.12C295.26 239.49 297.44 240.87 299.66 242.02C302.73 243.61 306.02 244.81 308.87 246.78C309.75 247.4 310.59 248.08 311.43 248.78C312.57 249.71 313.7 250.65 314.84 251.57C314.78 253.377 314.86 255.186 315.08 256.98C315.13 257.62 315.15 258.47 314.57 258.82Z" fill="#E3E8F4"/>
<path id="Vector_28" opacity="0.1" d="M330.8 441.14C330.8 442.89 330.8 444.65 330.8 446.4C326.64 446.52 322.39 447.13 318.25 447.4C314.36 447.68 310.46 447.69 306.56 447.64C303.509 447.716 300.461 447.379 297.5 446.64C295.37 446.02 293.37 445 291.25 444.36C287.25 443.13 283.03 443.28 278.8 443.78C275.36 444.18 271.89 444.78 268.46 445.09C266.237 445.4 263.973 445.167 261.86 444.41C261.269 444.142 260.701 443.828 260.16 443.47C259.315 442.903 258.433 442.392 257.52 441.94C255.06 440.84 252.32 441.02 249.57 441.28C249.34 439.868 249.416 438.424 249.792 437.043C250.168 435.663 250.836 434.38 251.75 433.28C255.18 433.66 257.95 433.65 260.95 433.78C261.03 433.35 261.13 432.92 261.23 432.49C283.025 431.098 304.909 432.442 326.37 436.49C327.94 436.78 329.7 437.23 330.43 438.65C330.747 439.439 330.874 440.293 330.8 441.14V441.14Z" fill="black"/>
<path id="Vector_29" d="M285.42 243.04C283.25 243.3 280.93 243.85 279.53 245.52C279.123 245.969 278.862 246.53 278.78 247.13C278.863 248.066 279.044 248.991 279.32 249.89C279.342 251.1 279.023 252.292 278.4 253.33C276.95 256.33 275.4 259.39 272.96 261.64C271.96 262.57 270.82 263.34 269.81 264.25C268.661 265.339 267.608 266.523 266.66 267.79C264.55 270.43 262.38 273.2 261.61 276.49C260.26 282.2 257.45 287.59 255.61 293.17C253.77 298.75 252.61 304.69 253.61 310.47C254.08 313.21 255.03 315.84 255.69 318.54C256.75 322.87 257.05 327.35 258.17 331.66C258.88 334.35 259.9 336.95 260.67 339.66C262.349 345.467 262.802 351.559 262 357.55C261.25 363.02 262.51 368.84 260.3 373.89C259.392 375.753 258.391 377.568 257.3 379.33C255.889 381.921 254.63 384.592 253.53 387.33L247.36 401.89C246.135 404.631 245.057 407.435 244.13 410.29C241.56 418.65 241.55 427.56 241.91 436.29C241.953 436.562 241.892 436.841 241.74 437.07C241.55 437.27 241.12 437.21 241.11 436.94C241.03 437.44 240.71 438.31 240.64 438.81C245.89 441.09 252.35 437.64 257.58 439.97C259.1 440.65 260.39 441.78 261.92 442.44C264.031 443.205 266.297 443.442 268.52 443.13C276.15 442.5 283.98 440.13 291.3 442.39C293.43 443.04 295.42 444.06 297.55 444.68C300.515 445.419 303.565 445.755 306.62 445.68C310.52 445.74 314.42 445.73 318.31 445.44C326.68 444.83 335.47 443 343.18 446.32C345.67 444.49 345.86 441.65 345.96 438.57C346.147 432.77 346.333 426.973 346.52 421.18L348.59 357.23C348.882 352.825 348.718 348.401 348.1 344.03C346.69 336.11 342.36 329.03 338.1 322.24L318.21 290.24C316.89 288.12 318.21 285.75 319.12 283.42C320.391 280.077 321.25 276.591 321.68 273.04C322 270.43 321.98 267.49 320.21 265.55C319.21 264.46 317.8 263.85 316.66 262.91C315 261.55 314 259.62 313 257.8C310.225 252.795 306.197 248.598 301.31 245.62C296.4 242.77 291.06 242.37 285.42 243.04Z" fill="#3F3D56"/>
<path id="Vector_30" opacity="0.1" d="M305.94 272.06C298.87 274.01 294.49 281.19 292.55 288.26C289.83 298.15 290.49 308.72 292.89 318.68C295.29 328.64 299.39 338.11 303.54 347.48C304.512 349.771 305.607 352.007 306.82 354.18C310.183 360.062 315.322 364.728 321.5 367.51C327.716 370.254 334.736 370.564 341.17 368.38C342.353 368.001 343.467 367.434 344.47 366.7C348.01 363.98 348.56 358.94 348.82 354.48L349.71 338.85C349.8 338.025 349.76 337.192 349.59 336.38C349.189 335.271 348.574 334.252 347.78 333.38C344.851 329.589 342.679 325.271 341.38 320.66C340.47 317.43 339.99 314.06 338.59 311.01C337.75 309.17 336.59 307.49 335.68 305.68C333.68 301.78 332.97 297.41 332.03 293.15C331.21 289.43 330.23 285.747 329.09 282.1C328.564 280.08 327.702 278.164 326.54 276.43C323.79 272.71 318.91 271.37 314.39 270.43C312.253 269.801 309.998 269.692 307.81 270.11C305.35 270.78 303.44 272.68 301.66 274.5" fill="black"/>
<path id="Vector_31" d="M306.94 271.06C299.87 273.01 295.49 280.19 293.55 287.26C290.83 297.15 291.49 307.72 293.89 317.68C296.29 327.64 300.39 337.11 304.54 346.48C305.512 348.771 306.607 351.007 307.82 353.18C311.183 359.062 316.322 363.728 322.5 366.51C328.716 369.254 335.736 369.564 342.17 367.38C343.353 367.001 344.467 366.434 345.47 365.7C349.01 362.98 349.56 357.94 349.82 353.48L350.71 337.85C350.8 337.025 350.76 336.192 350.59 335.38C350.189 334.271 349.574 333.252 348.78 332.38C345.851 328.589 343.679 324.271 342.38 319.66C341.47 316.43 340.99 313.06 339.59 310.01C338.75 308.17 337.59 306.49 336.68 304.68C334.68 300.78 333.97 296.41 333.03 292.15C332.21 288.43 331.23 284.747 330.09 281.1C329.564 279.08 328.702 277.164 327.54 275.43C324.79 271.71 319.91 270.37 315.39 269.43C313.253 268.801 310.998 268.692 308.81 269.11C306.35 269.78 304.44 271.68 302.66 273.5" fill="#3F3D56"/>
<path id="Vector_32" d="M375.92 312.8C373.395 307.523 372.924 301.495 374.6 295.89C378.52 296.89 379.6 302.67 383.6 303.7C384.19 303.85 384.82 303.88 385.42 304.01C388.22 304.58 390.2 307.01 391.65 309.51C393.978 313.353 395.401 317.675 395.81 322.15C396.205 326.643 395.153 331.146 392.81 335C392.91 334.85 385.81 327.57 385.21 326.82C383.963 325.36 382.743 323.87 381.55 322.35C380.296 320.942 379.168 319.426 378.18 317.82C377.84 317.18 377.77 316.44 377.47 315.76C377 314.75 376.41 313.79 375.92 312.8Z" fill="#CB8C8E"/>
<path id="Vector_33" d="M357.69 371.62C356.471 381.22 352.099 390.143 345.26 396.99C343.73 398.5 341.82 399.99 339.68 399.78C337.37 399.54 335.78 397.44 334.13 395.78C331.13 392.78 327.13 390.99 323.8 388.37C322.078 386.951 320.448 385.425 318.92 383.8C314.02 378.8 309.09 373.8 305.18 367.97C302.97 364.69 301.08 361.17 298.46 358.21C296.39 355.86 293.9 353.92 291.72 351.68C289.54 349.44 287.62 346.76 287.1 343.68C286.55 340.42 283.1 338.3 280.93 335.8C278.255 332.633 276.323 328.907 275.276 324.896C274.229 320.885 274.094 316.69 274.88 312.62C275.23 310.88 275.96 308.93 277.64 308.33C278.307 308.126 279.013 308.082 279.7 308.2C283.92 308.79 287.05 312.29 289.78 315.57C291.652 317.715 293.372 319.987 294.93 322.37C298.26 327.78 299.79 334.08 301.27 340.26C302.14 343.87 305.74 346.54 308.33 349.2L314.83 355.87C316.38 357.46 317.93 359.06 319.63 360.49C324.28 364.43 329.86 367.07 335.43 369.49C335.921 367.689 336.662 365.966 337.63 364.37C338.126 363.585 338.781 362.912 339.552 362.396C340.324 361.879 341.195 361.529 342.11 361.37C344.69 361.04 347.05 362.75 349.11 364.37L356.76 370.37C357.19 370.72 357.75 371.1 357.69 371.62Z" fill="#FBBEBE"/>
<path id="Vector_34" opacity="0.1" d="M369.86 311.94C370.799 312.947 371.542 314.121 372.05 315.4C373.75 318.91 374.518 322.798 374.28 326.69C374.014 328.785 373.552 330.851 372.9 332.86L370.52 341.05C366.82 353.75 363.11 366.48 358.11 378.73C354 373.4 346.81 371.79 340.97 368.46C340.394 368.175 339.88 367.777 339.46 367.29C338.945 366.538 338.682 365.641 338.71 364.73C338.773 362.271 339.309 359.846 340.29 357.59C343.93 347.82 348.98 338.28 349.57 327.88C349.593 325.945 349.717 324.012 349.94 322.09C350.363 319.8 351.268 317.625 352.596 315.712C353.923 313.798 355.643 312.188 357.64 310.99C361 308.81 366.88 309.02 369.86 311.94Z" fill="black"/>
<path id="Vector_35" d="M368.86 309.62C369.797 310.629 370.539 311.802 371.05 313.08C372.75 316.59 373.518 320.478 373.28 324.37C373.02 326.493 372.558 328.585 371.9 330.62L369.52 338.81C365.82 351.51 362.11 364.24 357.11 376.49C353 371.17 345.81 369.55 339.97 366.22C339.394 365.938 338.881 365.544 338.46 365.06C337.948 364.306 337.686 363.411 337.71 362.5C337.772 360.037 338.308 357.609 339.29 355.35C342.93 345.58 347.98 336.05 348.57 325.64C348.593 323.708 348.716 321.779 348.94 319.86C349.361 317.568 350.265 315.391 351.593 313.475C352.921 311.56 354.641 309.949 356.64 308.75C360 306.52 365.88 306.73 368.86 309.62Z" fill="#F4F6FB"/>
<path id="Vector_36" d="M345.69 256.47C347.69 258.6 348.25 261.68 348.58 264.59C349.44 272.11 349.46 279.87 347.12 287.07C344.78 294.27 339.82 300.86 332.87 303.85C342.55 305.42 354.05 306.4 360.61 299.1C361.89 297.68 362.93 295.97 364.56 294.94C371.51 290.56 380.33 302.11 387.87 298.83C392.87 296.67 393.23 289.91 392.87 284.51L391.5 264.51C390.8 254.3 389.91 243.51 384.06 235.15C378.78 227.58 370.13 223.03 361.34 220.15C355.02 218.15 347.98 216.84 341.83 219.37C333.98 222.59 318.83 235.45 318.92 244.96C319.09 259.09 339.09 249.49 345.69 256.47Z" fill="#3F3D56"/>
<path id="Vector_37" d="M351.65 334.54C352.773 334.584 353.895 334.439 354.97 334.11C356.67 333.48 357.97 331.9 359.8 331.64C360.72 331.51 361.9 331.64 362.3 330.77C362.419 330.365 362.463 329.941 362.43 329.52C362.57 327.09 365.62 326.25 367.68 324.95C368.979 324.039 370.129 322.933 371.09 321.67L378.19 313.28C378.842 312.321 379.791 311.601 380.89 311.23C382.146 311.09 383.406 311.449 384.4 312.23C388.532 314.977 391.842 318.795 393.977 323.275C396.111 327.755 396.99 332.73 396.52 337.67C396.503 338.352 396.325 339.02 396 339.62C394.89 341.36 392.28 340.94 390.31 341.56C386.54 342.74 385.39 347.63 382.16 349.9C380.71 350.9 378.92 351.33 377.51 352.37C376.1 353.41 375.02 355.23 373.74 356.64C371.74 358.9 368.89 360.29 366.15 361.64L357.78 365.72C356.133 366.577 354.417 367.293 352.65 367.86C349.598 368.574 346.459 368.84 343.33 368.65L337.2 368.57C336.509 368.632 335.814 368.493 335.2 368.17C334.839 367.9 334.536 367.56 334.31 367.17C331.16 362.44 330.52 356.33 331.64 350.76C332.57 346.14 334.76 339.76 338.05 336.25C340.91 333.23 347.69 334.62 351.65 334.54Z" fill="#3F3D56"/>
<path id="Vector_38" d="M327.17 204.97C326.988 204.019 327.114 203.036 327.53 202.162C327.945 201.288 328.628 200.569 329.48 200.11L337.08 194.4L335.52 192.13L338.45 189.62C338.21 189.286 337.878 189.029 337.494 188.88C337.111 188.731 336.693 188.696 336.29 188.78C336.75 185.69 334.11 183.08 331.6 181.24C326.49 177.5 320.6 174.39 314.34 173.97C311.27 173.77 308.19 174.21 305.12 173.97C300.98 173.71 296.96 172.31 292.81 172.15C288.66 171.99 284 173.62 282.26 177.35C281.52 178.97 281.42 180.8 280.86 182.49C279.61 186.23 276.31 188.82 273.5 191.59C270.69 194.36 268.08 198.07 268.86 201.93C269.167 203.175 269.649 204.37 270.29 205.48L285.79 235.41C286.308 234.439 287.052 233.606 287.959 232.981C288.865 232.357 289.908 231.959 291 231.82C293.55 231.52 296 232.66 298.58 232.98C300.493 233.189 302.429 232.934 304.223 232.238C306.018 231.542 307.618 230.425 308.89 228.98C312.31 225.04 313.14 214.98 319.08 213.98C321.18 213.62 324.54 216.27 326.37 215.22C328.52 214.04 327.21 207.19 327.17 204.97Z" fill="#3F3D56"/>
<g id="Group" opacity="0.1">
<path id="Vector_39" opacity="0.1" d="M338.87 300.79C345.82 297.79 350.77 291.19 353.12 284C355.47 276.81 355.44 269 354.58 261.52C354.25 258.62 353.7 255.52 351.69 253.4C345.09 246.4 325.09 256.02 324.91 241.96C324.8 233.85 335.83 223.31 343.91 218.38C343.186 218.573 342.475 218.81 341.78 219.09C333.93 222.31 318.78 235.18 318.87 244.68C319.05 258.74 339.05 249.15 345.65 256.13C347.65 258.25 348.21 261.34 348.54 264.25C349.4 271.76 349.42 279.53 347.08 286.72C344.74 293.91 339.78 300.52 332.83 303.51C341.37 304.89 351.32 305.81 358.05 301C352.14 302.55 345.13 301.8 338.87 300.79Z" fill="black"/>
<path id="Vector_40" opacity="0.1" d="M370.56 291.87C369.835 292.352 369.185 292.938 368.63 293.61C374.76 294.01 381.73 301.15 387.87 298.48C388.944 298.009 389.88 297.273 390.59 296.34C383.87 296.08 376.53 288.11 370.56 291.87Z" fill="black"/>
</g>
<g id="Group_2" opacity="0.1">
<path id="Vector_41" opacity="0.1" d="M335.57 184.91C335.42 184.69 335.26 184.47 335.1 184.26C335.098 184.491 335.081 184.721 335.05 184.95C335.221 184.916 335.396 184.903 335.57 184.91V184.91Z" fill="black"/>
<path id="Vector_42" opacity="0.1" d="M338.71 189.62C338.469 189.286 338.138 189.03 337.754 188.881C337.371 188.731 336.953 188.697 336.55 188.78C336.661 188.025 336.593 187.254 336.35 186.53L334.28 188.3L335.84 190.56L328.24 196.28C327.388 196.739 326.705 197.458 326.29 198.332C325.874 199.206 325.748 200.19 325.93 201.14C325.93 203.36 327.28 210.21 325.12 211.44C323.3 212.49 319.93 209.84 317.84 210.2C311.9 211.2 311.07 221.2 307.65 225.2C306.378 226.645 304.778 227.762 302.983 228.458C301.189 229.155 299.253 229.409 297.34 229.2C294.79 228.89 292.34 227.75 289.76 228.05C288.667 228.19 287.624 228.589 286.716 229.214C285.808 229.838 285.062 230.67 284.54 231.64C279.387 221.68 274.233 211.723 269.08 201.77V201.99C269.395 203.234 269.88 204.428 270.52 205.54L286 235.41C286.522 234.44 287.268 233.608 288.176 232.984C289.084 232.359 290.127 231.96 291.22 231.82C293.77 231.52 296.22 232.66 298.8 232.98C300.713 233.189 302.649 232.935 304.443 232.238C306.238 231.542 307.838 230.425 309.11 228.98C312.53 225.04 313.36 214.98 319.3 213.98C321.39 213.62 324.76 216.27 326.58 215.22C328.74 213.99 327.43 207.14 327.39 204.92C327.281 203.899 327.433 202.867 327.83 201.92C328.304 201.158 328.943 200.512 329.7 200.03L337.3 194.32L335.74 192.05L338.71 189.62Z" fill="black"/>
</g>
<path id="Vector_43" opacity="0.1" d="M251.06 406.73C250.06 411 249.43 415.36 248.06 419.53C247.46 421.41 246.72 423.24 246.13 425.12C245.6 426.83 245.2 428.56 244.79 430.3L243.16 437.3C243.654 437.275 244.135 437.135 244.565 436.892C244.995 436.649 245.363 436.31 245.64 435.9C246.187 435.076 246.602 434.172 246.87 433.22L249.6 425.1L251.6 419.1C254.44 410.65 257.29 402.18 259.45 393.52C259.99 391.38 260.45 389.24 260.92 387.08C261.1 386.25 262.41 381.62 261.07 382.01C260.12 382.28 258.51 386.5 258.07 387.42C257.07 389.26 256.25 391.14 255.44 393.05C253.589 397.475 252.123 402.052 251.06 406.73V406.73Z" fill="black"/>
<path id="Vector_44" d="M303.22 294.75C303.22 294.75 298.7 293.12 297.59 295.06C297.59 295.06 305.81 298.06 307.47 302.38C307.47 302.38 309.59 300.2 306.69 297.43L306.15 293.37L303.22 294.75Z" fill="#00A66C"/>
<path id="Vector_45" d="M310.72 288.62C310.72 288.62 310.97 286.56 309.93 286.34C308.89 286.12 301.85 286.53 302.98 294.34C304.11 302.15 312.25 299.22 312.25 299.22L315.82 295.06C315.82 295.06 316.58 289.55 311.58 288.22L310.72 288.62Z" fill="#6C63FF"/>
<path id="Vector_46" opacity="0.1" d="M305.05 284.38C305.05 284.38 298.91 287.48 301.89 295.27L304.2 293.93C304.2 293.93 307.09 287.17 305.05 284.38Z" fill="black"/>
<path id="Vector_47" d="M304.83 284.22C304.83 284.22 298.7 287.32 301.68 295.11L303.47 296.16C303.47 296.16 306.88 287.01 304.83 284.22Z" fill="#6C63FF"/>
<path id="Vector_48" opacity="0.1" d="M314.85 292.22C315.172 293.303 315.83 294.256 316.73 294.94C318.17 295.94 315.3 298.25 315.3 298.25C315.3 298.25 311.42 302.66 307.75 300.51C305.56 296.82 307.21 296.31 307.21 296.31C307.21 296.31 311.79 291.28 314.85 292.22Z" fill="black"/>
<path id="Vector_49" d="M315 292.43C315.322 293.513 315.98 294.466 316.88 295.15C318.31 296.15 315.44 298.46 315.44 298.46C315.44 298.46 311.57 302.87 307.89 300.72C304.21 298.57 307.35 296.53 307.35 296.53C307.35 296.53 311.89 291.49 315 292.43Z" fill="#6C63FF"/>
<path id="Vector_50" d="M301.08 284.32C301.08 284.32 296.54 285.9 296.9 288.11C296.9 288.11 305.18 285.27 309.19 287.58C309.19 287.58 309.46 284.58 305.47 284.22L302.47 281.4L301.08 284.32Z" fill="#5F3839"/>
<path id="Vector_51" d="M303 274.81C303 274.81 301.9 273.05 301 273.53C300.1 274.01 294.85 278.76 300.62 284.1C306.39 289.44 310.9 282.1 310.9 282.1L311 276.62C311 276.62 308.12 271.86 303.4 273.98L303 274.81Z" fill="#6C63FF"/>
<path id="Vector_52" opacity="0.1" d="M296 275.11C296 275.11 293.18 281.38 300.41 285.56L301.36 283.07C301.36 283.07 299.32 276 296 275.11Z" fill="black"/>
<path id="Vector_53" d="M295.7 275.12C295.7 275.12 292.89 281.39 300.11 285.57L302.16 285.26C302.16 285.26 299.05 276 295.7 275.12Z" fill="#6C63FF"/>
<path id="Vector_54" opacity="0.1" d="M308.52 275.03C309.454 275.672 310.567 276.001 311.7 275.97C313.46 275.86 312.7 279.44 312.7 279.44C312.7 279.44 312.46 285.31 308.25 285.95C304.25 284.46 305.19 283.03 305.19 283.03C305.19 283.03 305.55 276.23 308.52 275.03Z" fill="black"/>
<path id="Vector_55" d="M308.74 275.13C309.673 275.773 310.787 276.103 311.92 276.07C313.68 275.96 312.92 279.54 312.92 279.54C312.92 279.54 312.69 285.41 308.48 286.05C304.27 286.69 305.42 283.13 305.42 283.13C305.42 283.13 305.77 276.33 308.74 275.13Z" fill="#6C63FF"/>
<path id="Vector_56" d="M285.65 286.19C285.65 286.19 287.09 284.93 287.88 286.59L287.21 290.31L283.08 327.15L280.44 331.98L285.65 286.19Z" fill="#00A66C"/>
<path id="Vector_57" d="M297.89 277.62L280.59 333.82L282.16 334.69L299.32 277.99L297.89 277.62Z" fill="#00A66C"/>
<path id="Vector_58" d="M293.16 303.1C293.16 303.1 289.28 317.77 285 323.62C280.72 329.47 281.53 334.32 281.53 334.32L282.93 334.75L294.43 304.12L293.16 303.1Z" fill="#00A66C"/>
<path id="Vector_59" d="M307.3 290.19L282.62 333.17L283.8 333.81L309.25 290.5L307.3 290.19Z" fill="#00A66C"/>
<path id="Vector_60" d="M312.75 301.54L282.01 333.58L282.93 334.77L314.06 302.26L312.75 301.54Z" fill="#00A66C"/>
<path id="Vector_61" d="M314.72 303.92C314.72 303.92 314.31 302.12 312.93 302.46C311.55 302.8 284.38 332.97 284.38 332.97L285.53 333.87L314.72 303.92Z" fill="#00A66C"/>
<path id="Vector_62" d="M284.32 284.25C284.32 284.25 279.68 285.51 279.9 287.74C279.9 287.74 288.35 285.48 292.19 288.06C292.19 288.06 292.67 285.06 288.71 284.45L285.93 281.45L284.32 284.25Z" fill="#00A66C"/>
<path id="Vector_63" d="M286.92 274.89C286.92 274.89 285.92 273.06 284.97 273.48C284.02 273.9 278.47 278.27 283.85 283.99C289.23 289.71 294.25 282.67 294.25 282.67L294.78 277.21C294.78 277.21 292.24 272.27 287.38 274.05L286.92 274.89Z" fill="#6C63FF"/>
<path id="Vector_64" opacity="0.1" d="M279.87 274.71C279.87 274.71 276.62 280.77 283.54 285.44L284.66 283.02C284.66 283.02 283.14 275.82 279.87 274.71Z" fill="black"/>
<path id="Vector_65" d="M279.6 274.7C279.6 274.7 276.35 280.76 283.27 285.43L285.34 285.27C285.34 285.27 282.88 275.81 279.6 274.7Z" fill="#6C63FF"/>
<path id="Vector_66" opacity="0.1" d="M292.39 275.5C293.283 276.192 294.371 276.584 295.5 276.62C297.26 276.62 296.22 280.15 296.22 280.15C296.22 280.15 295.58 285.99 291.34 286.34C287.43 284.58 288.49 283.21 288.49 283.21C288.49 283.21 289.35 276.49 292.39 275.5Z" fill="black"/>
<path id="Vector_67" d="M292.6 275.62C293.489 276.324 294.577 276.73 295.71 276.78C297.47 276.78 296.43 280.31 296.43 280.31C296.43 280.31 295.79 286.14 291.55 286.49C287.31 286.84 288.7 283.37 288.7 283.37C288.7 283.37 289.56 276.62 292.6 275.62Z" fill="#6C63FF"/>
<path id="Vector_68" d="M296.15 275.62C296.15 275.62 291.51 276.88 291.72 279.11C291.72 279.11 300.17 276.85 304.01 279.42C304.01 279.42 304.5 276.42 300.53 275.82L297.75 272.82L296.15 275.62Z" fill="#00A66C"/>
<path id="Vector_69" d="M298.74 266.28C298.74 266.28 297.74 264.45 296.79 264.87C295.84 265.29 290.29 269.66 295.67 275.38C301.05 281.1 306.07 274.06 306.07 274.06L306.6 268.6C306.6 268.6 304.06 263.66 299.2 265.44L298.74 266.28Z" fill="#6C63FF"/>
<path id="Vector_70" opacity="0.1" d="M291.69 266.1C291.69 266.1 288.44 272.16 295.36 276.83L296.48 274.41C296.48 274.41 295 267.21 291.69 266.1Z" fill="black"/>
<path id="Vector_71" d="M291.42 266.09C291.42 266.09 288.18 272.15 295.09 276.82L297.16 276.65C297.16 276.65 294.7 267.2 291.42 266.09Z" fill="#6C63FF"/>
<path id="Vector_72" opacity="0.1" d="M304.22 266.89C305.105 267.593 306.191 267.996 307.32 268.04C309.08 268.04 308.04 271.57 308.04 271.57C308.04 271.57 307.4 277.41 303.16 277.76C299.26 275.99 300.31 274.63 300.31 274.63C300.31 274.63 301.17 267.88 304.22 266.89Z" fill="black"/>
<path id="Vector_73" d="M304.43 267C305.315 267.703 306.401 268.106 307.53 268.15C309.29 268.15 308.25 271.68 308.25 271.68C308.25 271.68 307.61 277.52 303.37 277.87C299.13 278.22 300.52 274.74 300.52 274.74C300.52 274.74 301.38 267.99 304.43 267Z" fill="#6C63FF"/>
<path id="Vector_74" d="M306.14 287.62C306.14 287.62 301.62 285.99 300.51 287.93C300.51 287.93 308.73 290.93 310.4 295.25C310.4 295.25 312.52 293.07 309.62 290.3L309.08 286.24L306.14 287.62Z" fill="#00A66C"/>
<path id="Vector_75" d="M313.64 281.46C313.64 281.46 313.89 279.4 312.85 279.18C311.81 278.96 304.78 279.37 305.85 287.18C306.92 294.99 315.13 292.06 315.13 292.06L318.7 287.9C318.7 287.9 319.45 282.39 314.45 281.06L313.64 281.46Z" fill="#6C63FF"/>
<path id="Vector_76" opacity="0.1" d="M308 277.26C308 277.26 301.86 280.36 304.85 288.15L307.15 286.81C307.15 286.81 310 280.05 308 277.26Z" fill="black"/>
<path id="Vector_77" d="M307.76 277.1C307.76 277.1 301.62 280.2 304.6 287.99L306.39 289.04C306.39 289.04 309.8 279.89 307.76 277.1Z" fill="#6C63FF"/>
<path id="Vector_78" opacity="0.1" d="M317.77 285.1C318.097 286.181 318.754 287.132 319.65 287.82C321.09 288.82 318.22 291.13 318.22 291.13C318.22 291.13 314.34 295.54 310.67 293.39C308.49 289.71 310.13 289.19 310.13 289.19C310.13 289.19 314.71 284.16 317.77 285.1Z" fill="black"/>
<path id="Vector_79" d="M317.88 285.31C318.203 286.395 318.861 287.351 319.76 288.04C321.2 289.04 318.33 291.34 318.33 291.34C318.33 291.34 314.45 295.75 310.78 293.61C307.11 291.47 310.24 289.41 310.24 289.41C310.24 289.41 314.82 284.37 317.88 285.31Z" fill="#6C63FF"/>
<path id="Vector_80" d="M313.39 299.87C313.39 299.87 308.87 298.24 307.77 300.19C307.77 300.19 315.98 303.19 317.65 307.51C317.65 307.51 319.77 305.32 316.87 302.56L316.33 298.49L313.39 299.87Z" fill="#00A66C"/>
<path id="Vector_81" d="M320.89 293.7C320.89 293.7 321.14 291.64 320.1 291.43C319.06 291.22 312.03 291.61 313.16 299.43C314.29 307.25 322.43 304.32 322.43 304.32L326 300.15C326 300.15 326.75 294.65 321.75 293.32L320.89 293.7Z" fill="#6C63FF"/>
<path id="Vector_82" opacity="0.1" d="M315.22 289.5C315.22 289.5 309.08 292.6 312.07 300.4L314.37 299.06C314.37 299.06 317.27 292.29 315.22 289.5Z" fill="black"/>
<path id="Vector_83" d="M315 289.34C315 289.34 308.86 292.44 311.84 300.23L313.63 301.28C313.63 301.28 317.05 292.13 315 289.34Z" fill="#6C63FF"/>
<path id="Vector_84" opacity="0.1" d="M325 297.34C325.322 298.424 325.976 299.379 326.87 300.07C328.31 301.07 325.44 303.37 325.44 303.37C325.44 303.37 321.56 307.78 317.89 305.64C315.71 301.95 317.35 301.44 317.35 301.44C317.35 301.44 322 296.4 325 297.34Z" fill="black"/>
<path id="Vector_85" d="M325.13 297.56C325.452 298.643 326.11 299.596 327.01 300.28C328.45 301.28 325.58 303.59 325.58 303.59C325.58 303.59 321.7 308 318.03 305.85C314.36 303.7 317.49 301.65 317.49 301.65C317.49 301.65 322.07 296.62 325.13 297.56Z" fill="#6C63FF"/>
<path id="Vector_86" d="M314.31 303.98C314.31 303.98 309.79 302.35 308.68 304.3C308.68 304.3 316.9 307.3 318.56 311.62C318.56 311.62 320.69 309.43 317.79 306.67L317.24 302.6L314.31 303.98Z" fill="#00A66C"/>
<path id="Vector_87" d="M321.81 297.81C321.81 297.81 322.06 295.76 321.02 295.54C319.98 295.32 312.95 295.72 314.07 303.54C315.19 311.36 323.34 308.43 323.34 308.43L326.91 304.27C326.91 304.27 327.67 298.76 322.67 297.43L321.81 297.81Z" fill="#6C63FF"/>
<path id="Vector_88" opacity="0.1" d="M316.14 293.62C316.14 293.62 310 296.71 313 304.51L315.31 303.17C315.31 303.17 318.18 296.4 316.14 293.62Z" fill="black"/>
<path id="Vector_89" d="M315.92 293.45C315.92 293.45 309.79 296.55 312.77 304.34L314.56 305.4C314.56 305.4 318 296.24 315.92 293.45Z" fill="#6C63FF"/>
<path id="Vector_90" opacity="0.1" d="M325.94 301.45C326.263 302.535 326.921 303.491 327.82 304.18C329.26 305.18 326.39 307.48 326.39 307.48C326.39 307.48 322.51 311.9 318.84 309.75C316.65 306.06 318.3 305.55 318.3 305.55C318.3 305.55 322.88 300.51 325.94 301.45Z" fill="black"/>
<path id="Vector_91" d="M326.05 301.67C326.372 302.753 327.03 303.706 327.93 304.39C329.37 305.39 326.49 307.7 326.49 307.7C326.49 307.7 322.62 312.11 318.95 309.96C315.28 307.81 318.4 305.76 318.4 305.76C318.4 305.76 323 300.73 326.05 301.67Z" fill="#6C63FF"/>
<path id="Vector_92" d="M292.29 301.3C292.29 301.3 287.77 299.66 286.66 301.61C286.66 301.61 294.88 304.61 296.54 308.93C296.54 308.93 298.66 306.75 295.76 303.98L295.22 299.91L292.29 301.3Z" fill="#00A66C"/>
<path id="Vector_93" d="M299.79 295.12C299.79 295.12 300.04 293.07 299 292.85C297.96 292.63 290.92 293.04 292.05 300.85C293.18 308.66 301.32 305.74 301.32 305.74L304.89 301.58C304.89 301.58 305.65 296.07 300.65 294.74L299.79 295.12Z" fill="#6C63FF"/>
<path id="Vector_94" opacity="0.1" d="M294.12 290.93C294.12 290.93 288 294.03 291 301.82L293.31 300.48C293.31 300.48 296.16 293.72 294.12 290.93Z" fill="black"/>
<path id="Vector_95" d="M293.9 290.77C293.9 290.77 287.77 293.86 290.75 301.66L292.54 302.66C292.54 302.66 296 293.56 293.9 290.77Z" fill="#6C63FF"/>
<path id="Vector_96" opacity="0.1" d="M303.92 298.76C304.241 299.847 304.899 300.803 305.8 301.49C307.24 302.49 304.37 304.8 304.37 304.8C304.37 304.8 300.49 309.21 296.82 307.06C294.63 303.37 296.28 302.86 296.28 302.86C296.28 302.86 300.86 297.82 303.92 298.76Z" fill="black"/>
<path id="Vector_97" d="M304 298.98C304.322 300.063 304.98 301.016 305.88 301.7C307.31 302.7 304.44 305.01 304.44 305.01C304.44 305.01 300.57 309.42 296.89 307.27C293.21 305.12 296.35 303.07 296.35 303.07C296.35 303.07 301 298.04 304 298.98Z" fill="#6C63FF"/>
<path id="Vector_98" d="M294.76 287.83C294.76 287.83 290.23 286.19 289.13 288.14C289.13 288.14 297.35 291.14 299.01 295.46C299.01 295.46 301.13 293.28 298.23 290.51L297.69 286.44L294.76 287.83Z" fill="#00A66C"/>
<path id="Vector_99" d="M302.26 281.62C302.26 281.62 302.51 279.62 301.47 279.35C300.43 279.08 293.39 279.54 294.47 287.35C295.55 295.16 303.74 292.24 303.74 292.24L307.31 288.08C307.31 288.08 308.06 282.57 303.06 281.24L302.26 281.62Z" fill="#6C63FF"/>
<path id="Vector_100" opacity="0.1" d="M296.58 277.46C296.58 277.46 290.45 280.55 293.43 288.35L295.74 287.01C295.74 287.01 298.63 280.25 296.58 277.46Z" fill="black"/>
<path id="Vector_101" d="M296.37 277.3C296.37 277.3 290.23 280.39 293.22 288.19L295 289.24C295 289.24 298.42 280.09 296.37 277.3Z" fill="#6C63FF"/>
<path id="Vector_102" opacity="0.1" d="M306.39 285.29C306.713 286.375 307.371 287.331 308.27 288.02C309.71 289.02 306.84 291.33 306.84 291.33C306.84 291.33 302.96 295.74 299.29 293.59C297.1 289.9 298.75 289.39 298.75 289.39C298.75 289.39 303.32 284.35 306.39 285.29Z" fill="black"/>
<path id="Vector_103" d="M306.49 285.51C306.812 286.593 307.47 287.546 308.37 288.23C309.81 289.23 306.94 291.54 306.94 291.54C306.94 291.54 303.06 295.95 299.39 293.8C295.72 291.65 298.85 289.6 298.85 289.6C298.85 289.6 303.43 284.62 306.49 285.51Z" fill="#6C63FF"/>
<path id="Vector_104" d="M279.7 308.2C279.7 308.2 292.09 309.57 298.82 331.12C305.55 352.67 284.38 336.55 284.38 336.55C284.38 336.55 278.8 337.67 277.93 326.42C277.06 315.17 279.7 308.2 279.7 308.2Z" fill="#FBBEBE"/>
<path id="Vector_105" d="M281.075 324.018L278.113 325.332C277.765 325.486 277.607 325.892 277.76 326.238C277.913 326.584 278.32 326.739 278.668 326.584L281.63 325.27C281.978 325.116 282.137 324.71 281.983 324.364C281.83 324.019 281.423 323.864 281.075 324.018Z" fill="#E3E8F4"/>
<path id="Vector_106" opacity="0.1" d="M228.69 244.14L226.69 242.32C219.51 235.72 214.76 231.44 214.76 226.1C214.743 225.085 214.929 224.076 215.308 223.134C215.688 222.192 216.252 221.336 216.968 220.616C217.684 219.897 218.537 219.328 219.477 218.944C220.417 218.559 221.425 218.368 222.44 218.38C223.638 218.386 224.821 218.653 225.905 219.163C226.99 219.672 227.95 220.412 228.72 221.33C229.488 220.41 230.449 219.669 231.534 219.16C232.618 218.65 233.801 218.384 235 218.38C236.015 218.369 237.021 218.562 237.96 218.947C238.898 219.331 239.75 219.9 240.465 220.62C241.181 221.34 241.744 222.195 242.123 223.137C242.501 224.078 242.687 225.086 242.67 226.1C242.67 231.44 237.93 235.72 230.74 242.32L228.69 244.14Z" fill="#6C63FF"/>
<path id="Vector_107" opacity="0.1" d="M200.78 130.68L198.78 128.85C191.59 122.26 186.84 117.97 186.84 112.64C186.823 111.625 187.009 110.616 187.388 109.674C187.767 108.733 188.332 107.876 189.048 107.156C189.764 106.437 190.617 105.868 191.557 105.484C192.497 105.099 193.505 104.908 194.52 104.92C195.718 104.926 196.901 105.193 197.985 105.703C199.07 106.212 200.03 106.952 200.8 107.87C201.569 106.951 202.53 106.211 203.614 105.702C204.699 105.192 205.882 104.925 207.08 104.92C208.094 104.909 209.101 105.102 210.04 105.487C210.978 105.871 211.83 106.44 212.545 107.16C213.261 107.88 213.824 108.736 214.203 109.677C214.581 110.618 214.767 111.626 214.75 112.64C214.75 117.97 210.01 122.26 202.82 128.85L200.78 130.68Z" fill="#6C63FF"/>
<path id="Vector_108" opacity="0.1" d="M410.22 185.07L408.22 183.24C401.03 176.65 396.29 172.36 396.29 167.03C396.273 166.016 396.459 165.008 396.837 164.067C397.216 163.126 397.779 162.27 398.495 161.55C399.21 160.83 400.062 160.261 401 159.877C401.939 159.492 402.946 159.299 403.96 159.31C405.158 159.316 406.341 159.582 407.426 160.092C408.51 160.601 409.471 161.341 410.24 162.26C411.01 161.342 411.97 160.602 413.055 160.093C414.139 159.583 415.322 159.316 416.52 159.31C417.535 159.298 418.543 159.49 419.483 159.874C420.423 160.258 421.276 160.827 421.992 161.547C422.708 162.266 423.272 163.123 423.652 164.065C424.031 165.006 424.217 166.015 424.2 167.03C424.2 172.36 419.45 176.65 412.27 183.24L410.22 185.07Z" fill="#6C63FF"/>
<path id="Vector_109" d="M1001.15 222.49C1000.94 222.609 1000.71 222.677 1000.47 222.69C1000.03 222.69 999.73 222.25 999.55 221.85C998.55 219.72 999.13 216.96 997.62 215.17C996.087 217.013 994.853 219.085 993.96 221.31L988.21 219.52C987.939 220.637 987.896 221.797 988.084 222.931C988.271 224.065 988.685 225.149 989.3 226.12C988.289 226.558 987.37 227.182 986.59 227.96C986.202 228.354 985.931 228.847 985.805 229.385C985.68 229.923 985.706 230.485 985.88 231.01C987.211 231.333 988.581 231.467 989.95 231.41C989.733 233.938 989.877 236.483 990.38 238.97C990.386 239.162 990.433 239.35 990.518 239.522C990.602 239.695 990.722 239.847 990.87 239.97C991.29 240.24 991.87 239.97 992.28 239.74C994.267 238.516 995.898 236.792 997.01 234.74L999.15 239.85C999.302 240.377 999.639 240.832 1000.1 241.13C1000.43 241.243 1000.78 241.244 1001.11 241.131C1001.43 241.019 1001.71 240.8 1001.9 240.51C1002.26 239.921 1002.47 239.257 1002.53 238.57L1003.33 233.71C1003.34 233.457 1003.44 233.216 1003.6 233.02C1003.84 232.835 1004.15 232.746 1004.45 232.77C1006.45 232.723 1008.48 232.703 1010.54 232.71C1010.89 231.63 1009.81 230.63 1008.77 230.18C1007.73 229.73 1006.5 229.38 1005.98 228.37C1004.92 226.31 1007.66 223.45 1006.5 221.68C1005.14 219.55 1002.92 221.62 1001.15 222.49Z" fill="#6C63FF"/>
<path id="Vector_110" opacity="0.2" d="M971.21 337.39C971.057 337.485 970.88 337.537 970.7 337.54C970.38 337.54 970.16 337.22 970.02 336.92C969.3 335.35 969.71 333.31 968.6 331.98C967.467 333.344 966.553 334.876 965.89 336.52L961.63 335.2C961.43 336.026 961.397 336.883 961.535 337.721C961.672 338.56 961.977 339.362 962.43 340.08C961.684 340.409 961.006 340.874 960.43 341.45C960.143 341.74 959.943 342.104 959.851 342.501C959.759 342.899 959.78 343.314 959.91 343.7C960.891 343.94 961.901 344.041 962.91 344C962.756 345.872 962.864 347.757 963.23 349.6C963.257 349.876 963.389 350.13 963.6 350.31C963.91 350.51 964.32 350.31 964.6 350.14C966.074 349.23 967.281 347.946 968.1 346.42L969.69 350.2C969.796 350.593 970.046 350.932 970.39 351.15C970.631 351.233 970.893 351.233 971.134 351.15C971.376 351.066 971.582 350.904 971.72 350.69C971.987 350.257 972.148 349.767 972.19 349.26L972.78 345.65C972.793 345.467 972.863 345.292 972.98 345.15C973.159 345.01 973.385 344.946 973.61 344.97C975.11 344.92 976.61 344.91 978.12 344.92C978.38 344.12 977.58 343.38 976.81 343.04C976.04 342.7 975.13 342.45 974.74 341.71C973.96 340.18 975.99 338.07 975.13 336.71C974.16 335.22 972.52 336.74 971.21 337.39Z" fill="#6C63FF"/>
<g id="arti">
<path id="Vector_111" opacity="0.1" d="M929.698 -27C929.698 -27 854.698 11.56 893.298 57.26C893.298 57.26 896.918 67.26 907.458 66.49C907.458 66.49 905.358 62.65 913.458 59.6C916.314 58.4933 919.029 57.0534 921.548 55.31C924.96 52.9649 927.513 49.5694 928.818 45.64V45.64C928.818 45.64 944.198 25.16 932.388 -12.81C932.388 -12.81 933.948 -23.54 932.608 -25.27L923.468 -12.81C923.468 -12.81 932.868 -6.46 933.928 2.81001C933.928 2.81001 924.158 -12.78 922.028 -11.01C921.598 -10.65 917.488 -4.18999 917.488 -4.18999C917.488 -4.18999 933.778 6.91 934.968 21.29C934.968 21.29 925.808 1.14 915.898 -1.71L910.268 8.41C910.268 8.41 928.068 19.3 930.048 35.62C930.048 35.62 919.748 14.9 909.188 10.71L904.998 21.41C904.998 21.41 922.148 32.41 923.708 45.96C923.708 45.96 909.378 23.21 904.198 23.96C904.198 23.96 900.948 34.02 901.368 37.11C901.368 37.11 913.498 45.26 913.698 53.23C913.698 53.23 902.518 39.05 900.788 39.98C900.788 39.98 900.038 54.21 903.478 61.62C903.478 61.62 897.608 51.04 898.558 39.98C898.558 39.98 892.658 44.98 891.348 51.53C891.348 51.53 888.128 43.69 898.788 36.53C898.788 36.53 899.788 25.46 901.038 24.1C901.038 24.1 889.528 29.68 884.628 36.57C884.628 36.57 886.448 26.3 902.048 21.23L906.048 10.38C906.048 10.38 890.438 16.96 885.608 22.77C885.608 22.77 889.088 12.58 907.278 7.77L912.688 -2.23C912.688 -2.23 898.808 2.41 892.038 7.71C892.038 7.71 897.298 -1.05 914.348 -5.03L918.738 -11.28C918.738 -11.28 908.668 -7.71 905.868 -6.42C903.068 -5.13 902.488 -5.78 902.488 -5.78C907.604 -10.138 913.827 -12.9936 920.468 -14.03C920.468 -14.03 930.388 -26.33 929.698 -27Z" fill="#6C63FF"/>
<path id="Vector_112" opacity="0.1" d="M830.208 19.92C830.208 19.92 836.048 57.58 861.148 47.54C861.148 47.54 865.938 47.41 867.148 42.78C867.148 42.78 865.198 43.13 865.038 39.24C864.972 37.858 864.744 36.4886 864.358 35.16C863.835 33.3631 862.739 31.7864 861.238 30.67V30.67C861.238 30.67 854.658 21.16 836.688 20.81C836.688 20.81 832.308 18.61 831.378 18.94L835.378 24.63C835.378 24.63 839.438 21.5 843.568 22.37C843.568 22.37 835.488 24.37 835.948 25.5C836.038 25.74 838.218 28.42 838.218 28.42C838.218 28.42 845.308 23.02 851.638 24.55C851.638 24.55 841.698 25.61 839.038 29.45L842.578 33.3C842.578 33.3 849.788 27.22 857.068 28.7C857.068 28.7 846.708 30.17 843.408 34.1L847.408 37.42C847.408 37.42 854.558 31.62 860.608 32.89C860.608 32.89 848.808 35.8 848.378 38.12C848.378 38.12 852.228 40.95 853.608 41.2C853.608 41.2 858.828 37.2 862.278 38.2C862.278 38.2 854.608 40.97 854.758 41.84C854.758 41.84 860.758 44.19 864.418 43.78C861.054 44.327 857.606 43.9822 854.418 42.78C855.238 44.7091 856.604 46.3565 858.348 47.52C858.348 47.52 854.528 47.78 852.978 42.19C852.978 42.19 848.378 40.19 847.978 39.45C847.978 39.45 848.728 45.18 850.978 48.27C850.978 48.27 846.828 46.02 846.878 38.61L842.798 35.36C842.798 35.36 843.388 42.99 845.198 45.89C845.198 45.89 841.318 42.94 841.828 34.45L838.318 30.71C838.318 30.71 838.318 37.33 839.648 40.98C839.648 40.98 836.648 37.48 837.358 29.6L835.358 26.83C835.358 26.83 835.458 31.65 835.608 33.04C835.758 34.43 835.398 34.58 835.398 34.58C834.272 31.7559 833.953 28.6746 834.478 25.68C834.478 25.68 830.598 19.72 830.208 19.92Z" fill="#6C63FF"/>
<path id="Vector_113" opacity="0.1" d="M982.308 36.54C982.308 36.54 945.038 28.62 945.468 55.62C945.468 55.62 943.878 60.14 947.778 62.9C947.778 62.9 948.148 60.9501 951.838 62.1901C953.151 62.6202 954.51 62.8921 955.888 63.0001C957.752 63.1543 959.616 62.698 961.198 61.7001C961.198 61.7001 972.438 58.93 979.198 42.26C979.198 42.26 982.818 38.9501 982.838 37.9701L976.078 39.7201C976.078 39.7201 977.558 44.6301 975.278 48.1701C975.278 48.1701 976.278 39.92 975.068 39.93C974.808 39.93 971.528 41.02 971.528 41.02C971.528 41.02 974.048 49.5601 970.358 54.9401C970.358 54.9401 972.918 45.2701 970.268 41.4201L965.408 43.35C965.408 43.35 968.528 52.2501 964.548 58.5301C964.548 58.5301 966.868 48.33 964.378 43.85L959.848 46.4C959.848 46.4 962.718 55.1301 959.378 60.3301C959.378 60.3301 960.868 48.28 958.848 47.05C958.848 47.05 954.848 49.64 954.098 50.84C954.098 50.84 956.018 57.16 953.808 60.01C953.808 60.01 953.948 51.85 953.078 51.68C953.078 51.68 948.748 56.44 947.828 60.02C948.506 56.681 950.047 53.578 952.298 51.02C950.201 51.1045 948.175 51.7997 946.468 53.02C946.468 53.02 947.588 49.36 953.368 49.9C953.368 49.9 956.888 46.3201 957.708 46.1901C957.708 46.1901 952.078 44.8501 948.398 45.8601C948.398 45.8601 951.968 42.79 958.878 45.48L963.368 42.82C963.368 42.82 956.028 40.6601 952.678 41.3101C952.678 41.3101 956.808 38.74 964.558 42.24L969.308 40.24C969.308 40.24 963.128 37.9 959.238 37.82C959.238 37.82 963.588 36.26 970.688 39.74L974.008 38.8101C974.008 38.8101 969.468 37.1801 968.118 36.8101C966.768 36.4401 966.748 36.07 966.748 36.07C969.79 36.0213 972.785 36.8212 975.398 38.38C975.398 38.38 982.358 36.97 982.308 36.54Z" fill="#6C63FF"/>
<path id="Vector_114" opacity="0.5" d="M920.398 144.45C916.398 139.01 908.128 144.91 911.868 150.54C912.868 152.01 913.918 153.44 914.928 154.8C927.248 171.43 933.628 191.62 939.128 211.57C940.468 216.47 941.778 221.7 940.238 226.57C942.438 213.57 941.008 200.22 937.688 187.49C934.368 174.76 929.198 162.6 923.858 150.59C922.926 148.426 921.766 146.368 920.398 144.45Z" fill="#6C63FF"/>
<path id="Vector_115" d="M840.468 179.42C832.158 179.17 831.108 191.77 839.378 192.42C841.548 192.59 843.738 192.64 845.818 192.7C871.258 193.39 895.318 202.62 918.428 212.54C924.108 214.97 930.058 217.7 933.428 222.91C923.008 210.83 909.288 201.98 894.688 195.47C880.088 188.96 864.548 184.7 849.008 180.71C846.217 179.97 843.353 179.537 840.468 179.42V179.42Z" fill="#6C63FF"/>
<path id="Vector_116" opacity="0.2" d="M842.788 210.39C837.548 210.59 838.728 218.04 844.008 218.09C845.388 218.09 846.768 218.04 848.088 217.98C864.088 217.33 880.568 221.76 896.508 226.63C900.418 227.82 904.558 229.18 907.398 232.11C899.098 225.44 889.198 220.8 879.098 217.58C868.998 214.36 858.628 212.5 848.298 210.81C846.479 210.49 844.634 210.35 842.788 210.39Z" fill="#6C63FF"/>
<path id="Vector_117" opacity="0.5" d="M950.158 349C951.648 354 958.568 351 957.308 345.91C956.978 344.57 956.568 343.25 956.188 341.99C951.578 326.6 951.798 309.59 952.558 292.94C952.738 288.85 953.028 284.51 955.158 281.03C950.758 290.73 948.718 301.46 948.108 312.03C947.498 322.6 948.268 333.12 949.188 343.54C949.33 345.388 949.654 347.217 950.158 349V349Z" fill="#6C63FF"/>
<path id="Vector_118" opacity="0.2" d="M852.348 137.46C849.188 136.91 848.948 141.51 852.098 142.21C852.928 142.39 853.758 142.53 854.548 142.67C864.218 144.32 873.468 149.05 882.368 153.98C884.558 155.19 886.848 156.53 888.178 158.64C883.954 153.66 878.849 149.5 873.118 146.37C867.479 143.276 861.62 140.602 855.588 138.37C854.541 137.957 853.456 137.652 852.348 137.46V137.46Z" fill="#6C63FF"/>
<path id="Vector_119" d="M803.588 259.38C795.588 263.51 802.348 274.83 810.588 271.07C812.738 270.07 814.848 268.99 816.848 267.94C841.338 255.24 869.788 250.57 897.758 246.94C904.628 246.06 911.948 245.29 918.298 248.01C900.988 243.12 882.558 242.72 864.738 244.79C846.918 246.86 829.588 251.33 812.428 256.04C809.376 256.853 806.414 257.972 803.588 259.38V259.38Z" fill="#6C63FF"/>
<path id="Vector_120" opacity="0.5" d="M826.468 303.45C820.708 308.82 829.698 315.17 835.738 310.01C837.318 308.66 838.828 307.23 840.268 305.88C857.818 289.41 881.008 277.68 904.098 266.88C909.768 264.23 933.098 261.52 939.318 261.67C923.058 263.12 889.828 268.2 875.058 274.92C860.288 281.64 846.608 289.97 833.138 298.44C830.764 299.899 828.531 301.577 826.468 303.45V303.45Z" fill="#6C63FF"/>
<path id="Vector_121" d="M867.558 373.8C865.878 381.48 876.878 381.59 878.918 373.91C879.448 371.91 879.918 369.91 880.288 367.91C885.368 344.42 897.778 321.62 910.638 299.62C913.788 294.22 931.448 278.73 936.638 275.31C924.078 285.76 899.638 308.83 891.298 322.75C882.958 336.67 876.468 351.25 870.198 365.87C869.078 368.427 868.194 371.082 867.558 373.8Z" fill="#6C63FF"/>
<path id="Vector_122" d="M956.726 106.626C952.806 98.6257 941.596 105.206 945.156 113.406C946.086 115.556 947.156 117.656 948.156 119.656C960.236 144.086 964.386 172.346 967.486 200.116C968.256 206.936 968.896 214.196 966.136 220.466C971.196 203.366 971.866 185.096 970.136 167.466C968.406 149.836 964.256 132.536 959.896 115.466C959.139 112.42 958.077 109.458 956.726 106.626V106.626Z" fill="#6C63FF"/>
<path id="Vector_123" d="M887.768 117.35C887.975 117.47 888.208 117.539 888.448 117.55C888.878 117.55 889.188 117.11 889.368 116.71C890.368 114.59 889.788 111.83 891.288 110.03C892.82 111.873 894.055 113.945 894.948 116.17L900.708 114.39C900.978 115.505 901.021 116.664 900.834 117.796C900.646 118.928 900.233 120.011 899.618 120.98C900.627 121.42 901.546 122.044 902.328 122.82C902.715 123.214 902.987 123.707 903.112 124.245C903.237 124.783 903.212 125.346 903.038 125.87C901.706 126.193 900.336 126.328 898.968 126.27C899.185 128.798 899.041 131.343 898.538 133.83C898.528 134.021 898.48 134.209 898.396 134.38C898.311 134.552 898.193 134.705 898.048 134.83C897.813 134.923 897.558 134.949 897.309 134.907C897.061 134.865 896.828 134.755 896.638 134.59C894.651 133.366 893.02 131.642 891.908 129.59L889.768 134.62C889.609 135.158 889.251 135.616 888.768 135.9C888.444 136.015 888.091 136.018 887.766 135.907C887.441 135.797 887.163 135.579 886.978 135.29C886.624 134.698 886.406 134.036 886.338 133.35L885.538 128.48C885.526 128.228 885.435 127.987 885.278 127.79C885.035 127.643 884.749 127.583 884.468 127.62C882.468 127.56 880.438 127.54 878.378 127.56C878.028 126.48 879.108 125.47 880.138 125.02C881.168 124.57 882.418 124.22 882.938 123.21C883.998 121.16 881.248 118.3 882.418 116.52C883.778 114.42 885.998 116.47 887.768 117.35Z" fill="#6C63FF"/>
<path id="Vector_124" opacity="0.5" d="M998.848 144.45C1002.85 139.01 1011.13 144.91 1007.39 150.54C1006.39 152.01 1005.39 153.44 1004.33 154.8C992.008 171.43 985.628 191.62 980.128 211.57C978.788 216.47 977.478 221.7 979.018 226.57C976.818 213.57 978.248 200.22 981.568 187.49C984.888 174.76 990.058 162.6 995.398 150.59C996.33 148.428 997.486 146.37 998.848 144.45V144.45Z" fill="#6C63FF"/>
<path id="Vector_125" d="M1078.76 179.42C1087.07 179.17 1088.12 191.77 1079.85 192.42C1077.68 192.59 1075.49 192.64 1073.41 192.7C1047.97 193.39 1023.91 202.62 1000.8 212.54C995.118 214.97 989.168 217.7 985.798 222.91C996.218 210.83 1009.94 201.98 1024.54 195.47C1039.14 188.96 1054.67 184.7 1070.22 180.71C1073.01 179.97 1075.87 179.537 1078.76 179.42V179.42Z" fill="#6C63FF"/>
<path id="Vector_126" opacity="0.5" d="M1076.47 210.39C1081.71 210.59 1080.53 218.04 1075.25 218.09C1073.87 218.09 1072.49 218.04 1071.17 217.98C1055.12 217.33 1038.69 221.76 1022.75 226.63C1018.84 227.82 1014.75 229.18 1011.86 232.11C1020.16 225.44 1030.05 220.8 1040.16 217.58C1050.27 214.36 1060.63 212.5 1070.96 210.81C1072.78 210.49 1074.62 210.349 1076.47 210.39V210.39Z" fill="#6C63FF"/>
<path id="Vector_127" opacity="0.2" d="M1066.91 137.46C1070.07 136.91 1070.31 141.51 1067.16 142.21C1066.33 142.39 1065.5 142.53 1064.71 142.67C1055.04 144.32 1045.79 149.05 1036.89 153.98C1034.7 155.19 1032.41 156.53 1031.08 158.64C1035.3 153.66 1040.41 149.5 1046.14 146.37C1051.78 143.276 1057.64 140.602 1063.67 138.37C1064.71 137.957 1065.8 137.652 1066.91 137.46V137.46Z" fill="#6C63FF"/>
<path id="Vector_128" opacity="0.2" d="M984.688 358.55C983.978 361.67 979.638 360.12 980.208 356.94C980.358 356.11 980.548 355.29 980.728 354.51C982.938 344.95 982.138 334.59 981.018 324.51C980.738 322.02 980.398 319.39 978.958 317.35C981.917 323.161 983.785 329.465 984.468 335.95C985.13 342.341 985.324 348.771 985.048 355.19C985.038 356.319 984.917 357.445 984.688 358.55V358.55Z" fill="#6C63FF"/>
<path id="Vector_129" opacity="0.5" d="M1064.88 337.76C1067.35 341.94 1061.29 341.66 1058.63 337.47C1057.93 336.38 1057.29 335.28 1056.68 334.23C1049.16 321.45 1037.68 308.81 1026.22 296.6C1023.4 293.6 1020.34 290.45 1016.78 288.45C1025.78 294.577 1034.08 301.677 1041.53 309.62C1048.92 317.35 1055.45 325.4 1061.84 333.44C1062.95 334.81 1063.96 336.253 1064.88 337.76V337.76Z" fill="#6C63FF"/>
<path id="Vector_130" opacity="0.2" d="M845.468 337.76C842.998 341.94 849.058 341.66 851.728 337.47C852.418 336.38 853.058 335.28 853.678 334.23C861.188 321.45 872.618 308.81 884.138 296.6C886.958 293.6 890.018 290.45 893.578 288.45C884.566 294.576 876.256 301.675 868.798 309.62C861.408 317.35 854.878 325.4 848.488 333.44C847.385 334.811 846.376 336.254 845.468 337.76Z" fill="#6C63FF"/>
<path id="Vector_131" opacity="0.2" d="M925.688 358.55C926.398 361.67 930.688 360.12 930.168 356.94C930.018 356.11 929.828 355.29 929.648 354.51C927.438 344.95 928.238 334.59 929.358 324.51C929.638 322.02 929.978 319.39 931.418 317.35C928.451 323.169 926.58 329.484 925.898 335.98C925.235 342.371 925.042 348.801 925.318 355.22C925.333 356.339 925.457 357.455 925.688 358.55V358.55Z" fill="#6C63FF"/>
<path id="Vector_132" opacity="0.2" d="M1041.63 168.85C1044.78 168.3 1045.02 172.91 1041.87 173.6C1041.05 173.79 1040.22 173.92 1039.43 174.06C1029.76 175.71 1020.51 180.44 1011.6 185.37C1009.42 186.59 1007.12 187.92 1005.8 190.03C1010.01 185.06 1015.09 180.901 1020.8 177.76C1026.44 174.674 1032.31 172 1038.34 169.76C1039.4 169.353 1040.5 169.049 1041.63 168.85V168.85Z" fill="#6C63FF"/>
<path id="Vector_133" opacity="0.2" d="M1012.13 107.22C1014.86 105.53 1016.8 109.71 1014.13 111.53C1013.43 112.01 1012.71 112.45 1012.03 112.87C1003.68 118.01 996.868 125.87 990.448 133.76C988.878 135.7 987.248 137.76 986.808 140.25C988.861 134.056 992.038 128.294 996.178 123.25C1000.26 118.288 1004.71 113.629 1009.47 109.31C1010.29 108.53 1011.18 107.831 1012.13 107.22V107.22Z" fill="#6C63FF"/>
<path id="Vector_134" d="M1115.67 259.38C1123.67 263.51 1116.91 274.83 1108.67 271.07C1106.51 270.07 1104.41 268.99 1102.4 267.94C1077.92 255.24 1049.47 250.57 1021.49 246.94C1014.63 246.06 1007.31 245.29 1000.96 248.01C1018.27 243.12 1036.7 242.72 1054.52 244.79C1072.34 246.86 1089.67 251.33 1106.83 256.04C1109.88 256.853 1112.84 257.972 1115.67 259.38V259.38Z" fill="#6C63FF"/>
<path id="Vector_135" opacity="0.5" d="M1092.78 303.45C1098.54 308.82 1089.55 315.17 1083.51 310.01C1081.92 308.66 1080.42 307.23 1078.98 305.88C1061.43 289.41 1038.24 277.68 1015.15 266.88C1009.48 264.23 986.148 261.52 979.918 261.67C996.188 263.12 1029.42 268.2 1044.19 274.92C1058.96 281.64 1072.64 289.97 1086.1 298.44C1088.48 299.897 1090.71 301.574 1092.78 303.45V303.45Z" fill="#6C63FF"/>
<path id="Vector_136" d="M1024.93 382.62C1025.64 390.46 1014.7 389.19 1013.64 381.32C1013.37 379.26 1013.2 377.2 1013.03 375.23C1010.94 351.23 1001.48 327.04 991.478 303.59C989.028 297.84 973.478 280.26 968.708 276.21C979.858 288.15 1001.23 314.1 1007.71 328.95C1014.19 343.8 1018.87 359.14 1023.26 374.43C1024.07 377.103 968.405 273.434 968.708 276.21L1024.93 382.62Z" fill="#6C63FF"/>
<path id="Vector_137" d="M1031.47 117.35C1031.26 117.47 1031.03 117.539 1030.79 117.55C1030.36 117.55 1030.05 117.11 1029.87 116.71C1028.87 114.59 1029.45 111.83 1027.95 110.03C1026.42 111.873 1025.18 113.945 1024.29 116.17L1018.53 114.39C1018.26 115.505 1018.21 116.664 1018.4 117.796C1018.59 118.928 1019 120.011 1019.62 120.98C1018.61 121.42 1017.69 122.044 1016.91 122.82C1016.52 123.214 1016.25 123.707 1016.12 124.245C1016 124.783 1016.02 125.346 1016.2 125.87C1017.53 126.193 1018.9 126.328 1020.27 126.27C1020.05 128.798 1020.19 131.343 1020.7 133.83C1020.71 134.021 1020.76 134.209 1020.84 134.38C1020.92 134.552 1021.04 134.705 1021.19 134.83C1021.42 134.923 1021.68 134.949 1021.93 134.907C1022.17 134.865 1022.41 134.755 1022.6 134.59C1024.58 133.366 1026.22 131.642 1027.33 129.59L1029.47 134.62C1029.63 135.158 1029.98 135.616 1030.47 135.9C1030.79 136.015 1031.14 136.018 1031.47 135.907C1031.79 135.797 1032.07 135.579 1032.26 135.29C1032.61 134.7 1032.83 134.036 1032.89 133.35L1033.69 128.48C1033.71 128.228 1033.8 127.988 1033.96 127.79C1034.2 127.609 1034.5 127.524 1034.81 127.55C1036.81 127.49 1038.84 127.47 1040.9 127.49C1041.25 126.41 1040.17 125.4 1039.14 124.95C1038.11 124.5 1036.86 124.15 1036.34 123.14C1035.28 121.09 1038.02 118.23 1036.86 116.45C1035.47 114.42 1033.26 116.47 1031.47 117.35Z" fill="#6C63FF"/>
<path id="Vector_138" opacity="0.2" d="M1048.85 354.35C1048.64 354.479 1048.41 354.549 1048.17 354.55C1047.74 354.55 1047.43 354.12 1047.25 353.72C1046.25 351.59 1046.83 348.83 1045.33 347.04C1043.79 348.879 1042.56 350.947 1041.67 353.17L1035.91 351.39C1035.64 352.507 1035.59 353.667 1035.78 354.801C1035.97 355.935 1036.38 357.019 1037 357.99C1035.99 358.427 1035.07 359.051 1034.29 359.83C1033.91 360.219 1033.64 360.704 1033.52 361.232C1033.39 361.76 1033.41 362.313 1033.58 362.83C1034.91 363.156 1036.28 363.294 1037.65 363.24C1037.43 365.768 1037.58 368.313 1038.08 370.8C1038.07 371.026 1038.13 371.249 1038.25 371.439C1038.37 371.629 1038.55 371.774 1038.76 371.855C1038.97 371.936 1039.2 371.949 1039.42 371.89C1039.64 371.832 1039.84 371.706 1039.98 371.53C1041.96 370.306 1043.6 368.582 1044.71 366.53L1046.85 371.64C1047.01 372.177 1047.37 372.633 1047.85 372.92C1048.17 373.033 1048.53 373.033 1048.85 372.92C1049.17 372.808 1049.45 372.589 1049.64 372.3C1049.99 371.71 1050.21 371.046 1050.27 370.36L1051.07 365.49C1051.09 365.241 1051.18 365.004 1051.34 364.81C1051.58 364.622 1051.88 364.533 1052.19 364.56C1054.19 364.513 1056.22 364.493 1058.28 364.5C1058.63 363.42 1057.55 362.42 1056.52 361.96C1055.49 361.5 1054.24 361.17 1053.72 360.16C1052.66 358.1 1055.4 355.24 1054.24 353.47C1052.84 351.42 1050.62 353.47 1048.85 354.35Z" fill="#6C63FF"/>
<path id="Vector_139" d="M902.638 378.12C902.354 378.294 902.03 378.39 901.698 378.4C901.088 378.4 900.698 377.79 900.408 377.24C899.048 374.24 899.828 370.43 897.728 367.93C895.593 370.497 893.872 373.382 892.628 376.48L884.628 374C884.25 375.554 884.189 377.168 884.451 378.745C884.712 380.323 885.289 381.831 886.148 383.18C884.737 383.791 883.455 384.663 882.368 385.75C881.825 386.297 881.443 386.983 881.267 387.734C881.09 388.484 881.125 389.268 881.368 390C883.219 390.451 885.124 390.639 887.028 390.56C886.732 394.084 886.933 397.632 887.628 401.1C887.674 401.619 887.922 402.1 888.318 402.44C888.908 402.81 889.678 402.44 890.318 402.11C893.091 400.393 895.366 397.979 896.918 395.11L899.918 402.23C900.127 402.967 900.6 403.601 901.248 404.01C901.701 404.166 902.193 404.165 902.645 404.01C903.098 403.854 903.486 403.551 903.748 403.15C904.246 402.33 904.547 401.406 904.628 400.45L905.748 393.67C905.753 393.304 905.884 392.951 906.118 392.67C906.454 392.411 906.875 392.289 907.298 392.33C910.131 392.25 912.961 392.22 915.788 392.24C916.278 390.74 914.788 389.34 913.328 388.71C911.868 388.08 910.158 387.59 909.438 386.19C907.958 383.32 911.778 379.34 910.158 376.87C908.198 374.04 905.108 376.9 902.638 378.12Z" fill="#6C63FF"/>
<path id="Vector_140" d="M821.518 200.23C821.231 200.404 820.903 200.5 820.568 200.51C819.968 200.51 819.568 199.9 819.288 199.34C817.918 196.34 818.708 192.53 816.608 190.03C814.456 192.607 812.721 195.505 811.468 198.62L803.468 196.14C803.09 197.695 803.029 199.31 803.289 200.888C803.548 202.467 804.123 203.978 804.978 205.33C803.572 205.944 802.293 206.816 801.208 207.9C800.667 208.447 800.288 209.131 800.112 209.879C799.935 210.627 799.968 211.41 800.208 212.14C802.063 212.589 803.97 212.781 805.878 212.71C805.577 216.231 805.779 219.776 806.478 223.24C806.497 223.498 806.568 223.75 806.686 223.98C806.805 224.21 806.969 224.414 807.168 224.58C807.758 224.96 808.528 224.58 809.118 224.26C811.894 222.547 814.171 220.133 815.718 217.26L818.718 224.38C818.929 225.116 819.397 225.751 820.038 226.17C820.492 226.325 820.984 226.323 821.437 226.165C821.89 226.008 822.278 225.703 822.538 225.3C823.037 224.48 823.342 223.556 823.428 222.6L824.538 215.82C824.557 215.457 824.686 215.108 824.908 214.82C825.248 214.561 825.672 214.44 826.098 214.48C828.931 214.4 831.761 214.373 834.588 214.4C835.068 212.89 833.588 211.49 832.118 210.86C830.648 210.23 828.958 209.75 828.228 208.34C826.758 205.48 830.578 201.49 828.948 199.02C827.078 196.14 823.988 199 821.518 200.23Z" fill="#6C63FF"/>
<path id="Vector_141" opacity="0.2" d="M957.468 374.02C957.317 374.113 957.145 374.165 956.968 374.17C956.638 374.17 956.418 373.84 956.278 373.55C955.558 371.97 955.978 369.93 954.858 368.6C953.725 369.964 952.811 371.496 952.148 373.14L947.888 371.82C947.687 372.648 947.655 373.507 947.794 374.348C947.933 375.188 948.241 375.991 948.698 376.71C947.952 377.034 947.273 377.495 946.698 378.07C946.412 378.361 946.212 378.725 946.12 379.122C946.029 379.519 946.048 379.934 946.178 380.32C947.159 380.559 948.169 380.66 949.178 380.62C949.019 382.492 949.127 384.378 949.498 386.22C949.506 386.357 949.542 386.49 949.604 386.612C949.666 386.735 949.752 386.843 949.858 386.93C950.168 387.13 950.578 386.93 950.858 386.76C952.334 385.85 953.544 384.567 954.368 383.04L955.948 386.83C956.061 387.22 956.314 387.554 956.658 387.77C956.896 387.855 957.156 387.857 957.396 387.776C957.636 387.694 957.841 387.533 957.978 387.32C958.244 386.883 958.404 386.39 958.448 385.88L959.048 382.28C959.057 382.095 959.124 381.917 959.238 381.77C959.416 381.63 959.642 381.566 959.868 381.59C961.368 381.59 962.868 381.53 964.378 381.54C964.638 380.74 963.838 380 963.068 379.66C962.298 379.32 961.388 379.07 961.008 378.33C960.218 376.8 962.248 374.69 961.388 373.38C960.468 371.85 958.788 373.36 957.468 374.02Z" fill="#6C63FF"/>
<path id="Vector_142" opacity="0.5" d="M850.828 151.33C850.677 151.423 850.505 151.475 850.328 151.48C850.008 151.48 849.778 151.15 849.648 150.86C848.918 149.29 849.338 147.24 848.218 145.91C847.085 147.277 846.17 148.812 845.508 150.46L841.248 149.14C841.047 149.966 841.015 150.824 841.154 151.663C841.294 152.501 841.601 153.303 842.058 154.02C841.312 154.344 840.633 154.805 840.058 155.38C839.774 155.674 839.576 156.04 839.484 156.438C839.392 156.836 839.411 157.251 839.538 157.64C840.519 157.879 841.529 157.98 842.538 157.94C842.378 159.809 842.486 161.691 842.858 163.53C842.864 163.668 842.9 163.804 842.962 163.928C843.024 164.052 843.111 164.161 843.218 164.25C843.385 164.312 843.566 164.328 843.742 164.296C843.918 164.265 844.082 164.187 844.218 164.07C845.691 163.161 846.902 161.882 847.728 160.36L849.308 164.14C849.41 164.551 849.663 164.908 850.018 165.14C850.259 165.221 850.521 165.22 850.761 165.137C851.002 165.054 851.208 164.893 851.348 164.68C851.608 164.24 851.768 163.748 851.818 163.24L852.468 159.62C852.481 159.434 852.551 159.256 852.668 159.11C852.849 158.976 853.073 158.912 853.298 158.93C854.798 158.93 856.298 158.93 857.798 158.93C858.058 158.13 857.258 157.39 856.498 157.05C855.738 156.71 854.808 156.46 854.428 155.71C853.638 154.19 855.668 152.07 854.808 150.76C853.778 149.16 852.148 150.68 850.828 151.33Z" fill="#6C63FF"/>
<path id="Vector_143" opacity="0.5" d="M907.588 276.82C907.437 276.913 907.265 276.965 907.088 276.97C906.768 276.97 906.538 276.64 906.408 276.35C905.678 274.77 906.098 272.73 904.978 271.35C903.842 272.714 902.931 274.25 902.278 275.9L898.008 274.62C897.809 275.446 897.779 276.304 897.918 277.142C898.057 277.98 898.363 278.782 898.818 279.5C898.073 279.827 897.395 280.288 896.818 280.86C896.534 281.154 896.336 281.52 896.244 281.918C896.152 282.316 896.171 282.732 896.298 283.12C897.279 283.359 898.289 283.46 899.298 283.42C899.139 285.289 899.247 287.171 899.618 289.01C899.609 289.176 899.654 289.341 899.744 289.48C899.835 289.619 899.967 289.727 900.122 289.786C900.277 289.846 900.448 289.856 900.608 289.813C900.769 289.771 900.912 289.679 901.018 289.55C902.491 288.641 903.701 287.362 904.528 285.84L906.108 289.62C906.227 290.009 906.478 290.345 906.818 290.57C907.059 290.652 907.32 290.651 907.561 290.567C907.802 290.484 908.008 290.323 908.148 290.11C908.416 289.674 908.577 289.181 908.618 288.67L909.208 285.07C909.221 284.884 909.291 284.706 909.408 284.56C909.588 284.424 909.813 284.36 910.038 284.38C911.538 284.38 913.038 284.32 914.548 284.38C914.798 283.58 914.008 282.84 913.238 282.5C912.468 282.16 911.558 281.91 911.168 281.16C910.388 279.64 912.408 277.52 911.548 276.21C910.548 274.62 908.908 276.17 907.588 276.82Z" fill="#6C63FF"/>
<path id="Vector_144" opacity="0.5" d="M866.398 227.9C866.247 227.993 866.075 228.045 865.898 228.05C865.568 228.05 865.348 227.72 865.208 227.43C864.488 225.85 864.908 223.81 863.788 222.48C862.652 223.846 861.738 225.381 861.078 227.03L856.818 225.71C856.618 226.536 856.586 227.393 856.723 228.231C856.861 229.069 857.165 229.871 857.618 230.59C856.872 230.915 856.194 231.377 855.618 231.95C855.331 232.242 855.131 232.608 855.039 233.007C854.947 233.406 854.968 233.822 855.098 234.21C856.079 234.449 857.089 234.55 858.098 234.51C857.939 236.379 858.047 238.261 858.418 240.1C858.402 240.269 858.442 240.438 858.532 240.582C858.621 240.727 858.755 240.838 858.914 240.899C859.072 240.96 859.246 240.968 859.409 240.921C859.572 240.874 859.716 240.776 859.818 240.64C861.291 239.733 862.498 238.453 863.318 236.93L864.908 240.71C865.013 241.119 865.266 241.475 865.618 241.71C865.858 241.791 866.117 241.789 866.356 241.706C866.595 241.623 866.8 241.462 866.938 241.25C867.206 240.814 867.367 240.32 867.408 239.81L868.008 236.21C868.017 236.025 868.084 235.847 868.198 235.7C868.378 235.565 868.603 235.501 868.828 235.52C870.328 235.52 871.828 235.46 873.338 235.52C873.598 234.72 872.798 233.98 872.028 233.64C871.258 233.3 870.348 233.05 869.968 232.3C869.178 230.78 871.208 228.66 870.348 227.35C869.348 225.73 867.708 227.25 866.398 227.9Z" fill="#6C63FF"/>
<path id="Vector_145" opacity="0.5" d="M1043.33 239.42C1043.18 239.513 1043 239.565 1042.83 239.57C1042.51 239.57 1042.29 239.24 1042.15 238.95C1041.42 237.37 1041.84 235.33 1040.73 234C1039.59 235.364 1038.67 236.899 1038.02 238.55L1033.76 237.23C1033.56 238.056 1033.53 238.913 1033.66 239.751C1033.8 240.589 1034.1 241.391 1034.56 242.11C1033.81 242.436 1033.14 242.898 1032.56 243.47C1032.27 243.765 1032.08 244.13 1031.99 244.528C1031.89 244.926 1031.91 245.341 1032.04 245.73C1033.02 245.963 1034.03 246.064 1035.04 246.03C1034.88 247.899 1034.99 249.781 1035.36 251.62C1035.35 251.788 1035.39 251.956 1035.48 252.098C1035.57 252.241 1035.71 252.35 1035.86 252.41C1036.02 252.471 1036.19 252.479 1036.36 252.434C1036.52 252.389 1036.66 252.293 1036.77 252.16C1038.24 251.251 1039.45 249.971 1040.27 248.45L1041.86 252.23C1041.97 252.62 1042.22 252.957 1042.56 253.18C1042.8 253.261 1043.06 253.26 1043.3 253.177C1043.54 253.094 1043.75 252.933 1043.89 252.72C1044.15 252.283 1044.32 251.79 1044.36 251.28L1044.95 247.68C1044.96 247.494 1045.03 247.316 1045.15 247.17C1045.33 247.034 1045.55 246.97 1045.78 246.99C1047.28 246.99 1048.78 246.93 1050.29 246.94C1050.54 246.15 1049.75 245.4 1048.98 245.07C1048.21 244.74 1047.3 244.48 1046.91 243.73C1046.13 242.21 1048.16 240.09 1047.29 238.78C1046.29 237.25 1044.65 238.77 1043.33 239.42Z" fill="#6C63FF"/>
<path id="Vector_146" opacity="0.2" d="M957.468 229.79C957.317 229.883 957.145 229.935 956.968 229.94C956.638 229.94 956.418 229.62 956.278 229.32C955.558 227.75 955.978 225.71 954.858 224.38C953.725 225.744 952.811 227.275 952.148 228.92L947.898 227.62C947.696 228.446 947.664 229.304 947.804 230.143C947.943 230.981 948.25 231.783 948.708 232.5C947.961 232.828 947.283 233.292 946.708 233.87C946.421 234.16 946.221 234.524 946.129 234.921C946.037 235.318 946.057 235.733 946.188 236.12C947.169 236.359 948.179 236.46 949.188 236.42C949.029 238.292 949.137 240.178 949.508 242.02C949.516 242.157 949.552 242.29 949.614 242.412C949.676 242.534 949.762 242.642 949.868 242.73C950.178 242.93 950.588 242.73 950.868 242.56C952.376 241.652 953.618 240.362 954.468 238.82L956.048 242.6C956.161 242.992 956.413 243.33 956.758 243.55C956.997 243.632 957.258 243.632 957.497 243.548C957.737 243.465 957.941 243.304 958.078 243.09C958.323 242.638 958.457 242.134 958.468 241.62L959.068 238.01C959.078 237.828 959.144 237.653 959.258 237.51C959.437 237.372 959.661 237.304 959.888 237.32C961.388 237.32 962.888 237.27 964.398 237.32C964.658 236.52 963.858 235.78 963.088 235.44C962.318 235.1 961.408 234.85 961.028 234.11C960.238 232.58 962.268 230.47 961.408 229.11C960.468 227.62 958.788 229.14 957.468 229.79Z" fill="#6C63FF"/>
<path id="Vector_147" opacity="0.3" d="M930.538 241.51C930.384 241.605 930.208 241.657 930.028 241.66C929.708 241.66 929.488 241.34 929.348 241.04C928.628 239.47 929.038 237.43 927.928 236.1C926.795 237.464 925.881 238.996 925.218 240.64L920.958 239.32C920.757 240.146 920.725 241.003 920.862 241.841C921 242.68 921.304 243.482 921.758 244.2C921.012 244.529 920.334 244.994 919.758 245.57C919.472 245.861 919.272 246.224 919.178 246.621C919.085 247.018 919.102 247.432 919.228 247.82C920.209 248.058 921.219 248.159 922.228 248.12C922.074 249.993 922.181 251.877 922.548 253.72C922.574 253.996 922.707 254.25 922.918 254.43C923.228 254.63 923.638 254.43 923.918 254.26C925.391 253.35 926.599 252.067 927.418 250.54L929.008 254.32C929.114 254.713 929.364 255.052 929.708 255.27C929.949 255.355 930.211 255.356 930.453 255.272C930.695 255.189 930.901 255.026 931.038 254.81C931.305 254.377 931.466 253.887 931.508 253.38L932.098 249.78C932.109 249.593 932.179 249.415 932.298 249.27C932.476 249.13 932.702 249.066 932.928 249.09C934.428 249.04 935.928 249.03 937.438 249.04C937.698 248.24 936.898 247.5 936.128 247.16C935.358 246.82 934.448 246.57 934.058 245.83C933.278 244.3 935.308 242.19 934.448 240.83C933.468 239.34 931.848 240.86 930.538 241.51Z" fill="#6C63FF"/>
<path id="Vector_148" opacity="0.2" d="M905.468 170.62C905.317 170.713 905.145 170.765 904.968 170.77C904.648 170.77 904.428 170.45 904.288 170.15C903.558 168.58 903.978 166.53 902.868 165.21C901.731 166.571 900.817 168.104 900.158 169.75L895.898 168.43C895.698 169.256 895.666 170.113 895.803 170.951C895.94 171.789 896.245 172.591 896.698 173.31C895.951 173.633 895.272 174.094 894.698 174.67C894.412 174.963 894.212 175.328 894.119 175.726C894.025 176.125 894.042 176.541 894.168 176.93C895.149 177.168 896.159 177.269 897.168 177.23C897.008 179.099 897.116 180.981 897.488 182.82C897.515 183.098 897.647 183.356 897.858 183.54C898.168 183.74 898.578 183.54 898.858 183.36C900.331 182.453 901.538 181.173 902.358 179.65L903.948 183.43C904.046 183.84 904.296 184.197 904.648 184.43C904.889 184.513 905.151 184.513 905.392 184.43C905.633 184.346 905.839 184.184 905.978 183.97C906.245 183.537 906.406 183.047 906.448 182.54L907.038 178.93C907.051 178.744 907.121 178.566 907.238 178.42C907.421 178.291 907.643 178.228 907.868 178.24C909.368 178.24 910.868 178.24 912.378 178.24C912.628 177.44 911.838 176.7 911.068 176.36C910.298 176.02 909.388 175.77 908.998 175.02C908.218 173.5 910.248 171.38 909.378 170.07C908.378 168.41 906.738 169.93 905.468 170.62Z" fill="#6C63FF"/>
<path id="Vector_149" opacity="0.3" d="M954.888 263.14C954.737 263.233 954.565 263.285 954.388 263.29C954.229 263.257 954.082 263.183 953.962 263.073C953.843 262.964 953.755 262.825 953.708 262.67C952.978 261.1 953.398 259.05 952.278 257.73C951.145 259.094 950.231 260.626 949.568 262.27L945.308 260.95C945.109 261.776 945.079 262.634 945.218 263.472C945.357 264.31 945.663 265.112 946.118 265.83C945.374 266.158 944.696 266.619 944.118 267.19C943.834 267.484 943.636 267.85 943.544 268.248C943.452 268.646 943.471 269.062 943.598 269.45C944.579 269.689 945.589 269.79 946.598 269.75C946.438 271.619 946.546 273.501 946.918 275.34C946.924 275.478 946.96 275.614 947.022 275.738C947.084 275.862 947.171 275.971 947.278 276.06C947.444 276.123 947.625 276.141 947.801 276.111C947.977 276.081 948.141 276.005 948.278 275.89C949.75 274.975 950.96 273.693 951.788 272.17L953.368 275.95C953.481 276.342 953.733 276.68 954.078 276.9C954.319 276.983 954.581 276.983 954.822 276.9C955.063 276.816 955.269 276.654 955.408 276.44C955.666 276.003 955.827 275.515 955.878 275.01L956.468 271.4C956.464 271.296 956.483 271.192 956.526 271.097C956.568 271.001 956.632 270.917 956.712 270.85C956.793 270.784 956.887 270.736 956.989 270.712C957.09 270.688 957.196 270.687 957.298 270.71C958.798 270.71 960.298 270.71 961.798 270.71C962.058 269.91 961.258 269.17 960.498 268.83C959.738 268.49 958.808 268.24 958.428 267.49C957.648 265.97 959.668 263.85 958.808 262.54C957.838 260.97 956.208 262.49 954.888 263.14Z" fill="#6C63FF"/>
</g>
</g>
<defs>
<linearGradient id="paint0_linear_4:134" x1="403.81" y1="690.64" x2="403.81" y2="168.77" gradientUnits="userSpaceOnUse">
<stop stop-color="#808080" stop-opacity="0.25"/>
<stop offset="0.54" stop-color="#808080" stop-opacity="0.12"/>
<stop offset="1" stop-color="#808080" stop-opacity="0.1"/>
</linearGradient>
<clipPath id="clip0_4:134">
<rect width="1144" height="703.24" fill="white"/>
</clipPath>
</defs>
</svg>
